G04*
G04 #@! TF.GenerationSoftware,Altium Limited,Altium Designer,19.0.10 (269)*
G04*
G04 Layer_Physical_Order=1*
G04 Layer_Color=255*
%FSLAX25Y25*%
%MOIN*%
G70*
G01*
G75*
%ADD10C,0.02000*%
%ADD19R,0.03150X0.02953*%
%ADD20R,0.02953X0.03150*%
%ADD21R,0.05000X0.03600*%
%ADD22R,0.03600X0.03600*%
%ADD23R,0.01772X0.01772*%
%ADD24R,0.05906X0.01772*%
G04:AMPARAMS|DCode=25|XSize=68.9mil|YSize=98.43mil|CornerRadius=3.45mil|HoleSize=0mil|Usage=FLASHONLY|Rotation=270.000|XOffset=0mil|YOffset=0mil|HoleType=Round|Shape=RoundedRectangle|*
%AMROUNDEDRECTD25*
21,1,0.06890,0.09153,0,0,270.0*
21,1,0.06201,0.09843,0,0,270.0*
1,1,0.00689,-0.04577,-0.03100*
1,1,0.00689,-0.04577,0.03100*
1,1,0.00689,0.04577,0.03100*
1,1,0.00689,0.04577,-0.03100*
%
%ADD25ROUNDEDRECTD25*%
%ADD26R,0.01772X0.01968*%
%ADD27R,0.01772X0.01772*%
%ADD28R,0.03600X0.05000*%
%ADD29R,0.03600X0.03600*%
%ADD45C,0.01500*%
%ADD46C,0.03000*%
%ADD47R,0.05906X0.05906*%
%ADD48C,0.05906*%
%ADD49R,0.05906X0.05906*%
%ADD50C,0.09843*%
%ADD51C,0.02756*%
G36*
X300500Y197000D02*
X138000D01*
Y372500D01*
X300500D01*
Y197000D01*
D02*
G37*
%LPC*%
G36*
X283453Y365453D02*
X274547D01*
X274075Y364331D01*
X262925D01*
Y363549D01*
X257653D01*
Y365453D01*
X248747D01*
X248575Y364331D01*
X237425D01*
Y363549D01*
X231853D01*
Y365453D01*
X222947D01*
X222575Y364331D01*
X211425D01*
Y363549D01*
X206053D01*
Y365453D01*
X197147D01*
X196575Y364331D01*
X180925D01*
X180253Y365453D01*
X171347D01*
X171075Y364331D01*
X154925D01*
X154453Y365453D01*
X145547D01*
Y363294D01*
X145308D01*
X144430Y363120D01*
X143685Y362622D01*
X142878Y361815D01*
X142380Y361070D01*
X142206Y360192D01*
Y338180D01*
X142380Y337302D01*
X142878Y336558D01*
X145058Y334378D01*
X145078Y334364D01*
X145791Y333592D01*
X145745Y332363D01*
X145662Y332162D01*
X145509Y331000D01*
X145662Y329838D01*
X146110Y328754D01*
X146824Y327824D01*
X147754Y327111D01*
X148559Y326777D01*
X148688Y326112D01*
Y325888D01*
X148559Y325223D01*
X147754Y324889D01*
X146824Y324176D01*
X146110Y323246D01*
X145662Y322162D01*
X145509Y321000D01*
X145662Y319838D01*
X146110Y318754D01*
X146824Y317824D01*
X147754Y317110D01*
X148559Y316777D01*
X148688Y316112D01*
Y315888D01*
X148559Y315223D01*
X147754Y314890D01*
X146824Y314176D01*
X146110Y313246D01*
X145662Y312162D01*
X145509Y311000D01*
X145662Y309838D01*
X146110Y308754D01*
X146824Y307824D01*
X147754Y307111D01*
X148838Y306662D01*
X150000Y306509D01*
X151162Y306662D01*
X152246Y307111D01*
X153176Y307824D01*
X153852Y308706D01*
X156643D01*
X157147Y307206D01*
X156947Y307053D01*
X156486Y306451D01*
X156196Y305751D01*
X156097Y305000D01*
X156196Y304249D01*
X156451Y303633D01*
Y277431D01*
X155935Y277026D01*
X154338Y277662D01*
X153890Y278746D01*
X153176Y279676D01*
X152246Y280389D01*
X151441Y280723D01*
X151312Y281388D01*
Y281612D01*
X151441Y282277D01*
X152246Y282611D01*
X153176Y283324D01*
X153890Y284254D01*
X154338Y285338D01*
X154491Y286500D01*
X154338Y287662D01*
X153890Y288746D01*
X153176Y289676D01*
X152246Y290389D01*
X151162Y290838D01*
X150000Y290991D01*
X148838Y290838D01*
X147754Y290389D01*
X146824Y289676D01*
X146110Y288746D01*
X145662Y287662D01*
X145509Y286500D01*
X145662Y285338D01*
X146110Y284254D01*
X146824Y283324D01*
X147754Y282611D01*
X148559Y282277D01*
X148688Y281612D01*
Y281388D01*
X148559Y280723D01*
X147754Y280389D01*
X146824Y279676D01*
X146110Y278746D01*
X145662Y277662D01*
X145641Y277500D01*
X150000D01*
Y275500D01*
X145641D01*
X145662Y275338D01*
X146110Y274254D01*
X146824Y273324D01*
X147754Y272610D01*
X148559Y272277D01*
X148688Y271612D01*
Y271388D01*
X148559Y270723D01*
X147754Y270390D01*
X146824Y269676D01*
X146110Y268746D01*
X145662Y267662D01*
X145509Y266500D01*
X145662Y265338D01*
X146110Y264254D01*
X146824Y263324D01*
X147754Y262611D01*
X148135Y262453D01*
X147837Y260953D01*
X145547D01*
Y252047D01*
X154453D01*
Y253951D01*
X156500D01*
X157475Y254145D01*
X158302Y254698D01*
X163802Y260198D01*
X164355Y261024D01*
X164549Y262000D01*
Y296944D01*
X165233Y297628D01*
X165751Y297696D01*
X166206Y297884D01*
X167046Y297547D01*
X167706Y297058D01*
Y283500D01*
X167880Y282622D01*
X168378Y281878D01*
X181275Y268980D01*
X182020Y268483D01*
X182898Y268308D01*
X184656D01*
X185748Y267324D01*
X185748Y267324D01*
X185748D01*
X185782Y266808D01*
X185749Y266804D01*
X185049Y266514D01*
X184447Y266053D01*
X183986Y265451D01*
X183696Y264751D01*
X183597Y264000D01*
X183696Y263249D01*
X183986Y262549D01*
X184023Y262500D01*
X183986Y262451D01*
X183696Y261751D01*
X183597Y261000D01*
X183696Y260249D01*
X183986Y259549D01*
X184206Y259262D01*
Y251575D01*
X181791D01*
Y248500D01*
X180791D01*
Y247500D01*
X177815D01*
Y245425D01*
Y244500D01*
X180791D01*
Y243500D01*
X181791D01*
Y240425D01*
X183474D01*
Y238146D01*
X183577Y237363D01*
X183879Y236633D01*
X184360Y236006D01*
X185169Y235197D01*
Y233425D01*
Y232500D01*
X188146D01*
Y231500D01*
X189146D01*
Y228425D01*
X195524D01*
Y223425D01*
X195524D01*
X195380Y221985D01*
X193274Y219879D01*
X192744Y219659D01*
X192574D01*
X191959Y219914D01*
X191208Y220013D01*
X190456Y219914D01*
X189841Y219659D01*
X162354D01*
X162328Y219916D01*
X161961Y221127D01*
X161365Y222242D01*
X160563Y223220D01*
X159585Y224022D01*
X158469Y224619D01*
X157259Y224986D01*
X156000Y225110D01*
X154741Y224986D01*
X153531Y224619D01*
X152415Y224022D01*
X151437Y223220D01*
X150635Y222242D01*
X150039Y221127D01*
X149672Y219916D01*
X149548Y218657D01*
X149672Y217399D01*
X150039Y216188D01*
X150635Y215073D01*
X151437Y214095D01*
X152415Y213293D01*
X153531Y212696D01*
X154741Y212329D01*
X156000Y212205D01*
X157259Y212329D01*
X158469Y212696D01*
X159585Y213293D01*
X160563Y214095D01*
X160945Y214562D01*
X189841D01*
X190456Y214307D01*
X191208Y214208D01*
X191959Y214307D01*
X192574Y214562D01*
X192744D01*
X193359Y214307D01*
X194110Y214208D01*
X194862Y214307D01*
X195562Y214597D01*
X196163Y215058D01*
X196624Y215659D01*
X196879Y216274D01*
X200302Y219698D01*
X200855Y220525D01*
X201049Y221500D01*
Y223425D01*
X203209D01*
Y226500D01*
X205209D01*
Y223425D01*
X207185D01*
X207337Y221988D01*
Y212657D01*
X206710Y212176D01*
X205996Y211246D01*
X205663Y210441D01*
X204998Y210312D01*
X204774D01*
X204108Y210441D01*
X203775Y211246D01*
X203062Y212176D01*
X202131Y212890D01*
X201048Y213338D01*
X200886Y213359D01*
Y209000D01*
Y204641D01*
X201048Y204662D01*
X202131Y205111D01*
X203062Y205824D01*
X203775Y206754D01*
X204108Y207559D01*
X204774Y207688D01*
X204998D01*
X205663Y207559D01*
X205996Y206754D01*
X206710Y205824D01*
X207640Y205111D01*
X208723Y204662D01*
X209886Y204509D01*
X211048Y204662D01*
X212131Y205111D01*
X213061Y205824D01*
X213775Y206754D01*
X213933Y207135D01*
X215433Y206837D01*
Y204547D01*
X224339D01*
Y213453D01*
X224339D01*
X224345Y214950D01*
X225500D01*
Y218250D01*
X227500D01*
Y214950D01*
X229800D01*
Y217490D01*
X230500Y218700D01*
X231300Y218700D01*
X234466D01*
X234824Y218423D01*
X235624Y217200D01*
X235597Y217000D01*
X235696Y216249D01*
X235986Y215549D01*
X236447Y214947D01*
X237049Y214486D01*
X237749Y214196D01*
X238500Y214097D01*
X239078Y214173D01*
X239754Y212890D01*
X238824Y212176D01*
X238110Y211246D01*
X237777Y210441D01*
X237112Y210312D01*
X236888D01*
X236223Y210441D01*
X235890Y211246D01*
X235176Y212176D01*
X234246Y212890D01*
X233162Y213338D01*
X233000Y213359D01*
Y209000D01*
Y204641D01*
X233162Y204662D01*
X234246Y205111D01*
X235176Y205824D01*
X235890Y206754D01*
X236223Y207559D01*
X236888Y207688D01*
X237112D01*
X237777Y207559D01*
X238110Y206754D01*
X238824Y205824D01*
X239754Y205111D01*
X240838Y204662D01*
X242000Y204509D01*
X242783Y204612D01*
X245698Y201698D01*
X246525Y201145D01*
X247500Y200951D01*
X277500D01*
X278475Y201145D01*
X279302Y201698D01*
X293802Y216198D01*
X294355Y217024D01*
X294549Y218000D01*
Y250000D01*
X294355Y250975D01*
X293802Y251802D01*
X284050Y261555D01*
X284338Y262487D01*
X284692Y263034D01*
X285662Y263162D01*
X286746Y263611D01*
X287676Y264324D01*
X288389Y265254D01*
X288838Y266338D01*
X288991Y267500D01*
X288838Y268662D01*
X288389Y269746D01*
X287676Y270676D01*
X286746Y271390D01*
X286365Y271547D01*
X286663Y273047D01*
X288953D01*
Y281953D01*
X280047D01*
Y279663D01*
X278547Y279365D01*
X278390Y279746D01*
X277676Y280676D01*
X276746Y281389D01*
X275662Y281838D01*
X274500Y281991D01*
X273338Y281838D01*
X272254Y281389D01*
X271324Y280676D01*
X270610Y279746D01*
X270277Y278941D01*
X269612Y278812D01*
X269388D01*
X268723Y278941D01*
X268390Y279746D01*
X267676Y280676D01*
X266746Y281389D01*
X265662Y281838D01*
X264500Y281991D01*
X263338Y281838D01*
X262254Y281389D01*
X261324Y280676D01*
X260611Y279746D01*
X260277Y278941D01*
X259612Y278812D01*
X259388D01*
X258723Y278941D01*
X258389Y279746D01*
X257676Y280676D01*
X256746Y281389D01*
X255662Y281838D01*
X254500Y281991D01*
X253338Y281838D01*
X252254Y281389D01*
X251324Y280676D01*
X250610Y279746D01*
X250277Y278941D01*
X249612Y278812D01*
X249388D01*
X248723Y278941D01*
X248390Y279746D01*
X247676Y280676D01*
X246746Y281389D01*
X245662Y281838D01*
X244500Y281991D01*
X243338Y281838D01*
X242254Y281389D01*
X241324Y280676D01*
X240611Y279746D01*
X240162Y278662D01*
X240009Y277500D01*
X240162Y276338D01*
X240611Y275254D01*
X241324Y274324D01*
X242254Y273610D01*
X243059Y273277D01*
X243188Y272612D01*
Y272388D01*
X243059Y271723D01*
X242254Y271390D01*
X241324Y270676D01*
X240611Y269746D01*
X240162Y268662D01*
X240009Y267500D01*
X240162Y266338D01*
X240611Y265254D01*
X241324Y264324D01*
X241474Y264209D01*
Y261253D01*
X237751Y257530D01*
X237429Y257579D01*
X236294Y258195D01*
Y265783D01*
X236120Y266661D01*
X235622Y267405D01*
X233362Y269666D01*
X232618Y270163D01*
X231740Y270337D01*
X228870D01*
Y274469D01*
X229119Y274843D01*
X229294Y275721D01*
X229119Y276598D01*
X228870Y276972D01*
Y281012D01*
X229870D01*
Y283663D01*
X278957D01*
X279835Y283837D01*
X280579Y284334D01*
X288368Y292124D01*
X288475Y292145D01*
X289302Y292698D01*
X289855Y293525D01*
X290049Y294500D01*
Y332500D01*
X289855Y333475D01*
X289302Y334302D01*
X283388Y340217D01*
X283491Y341000D01*
X283338Y342162D01*
X282890Y343246D01*
X282176Y344176D01*
X281246Y344889D01*
X280441Y345223D01*
X280312Y345888D01*
Y346112D01*
X280441Y346777D01*
X281246Y347111D01*
X282176Y347824D01*
X282890Y348754D01*
X283338Y349838D01*
X283360Y350000D01*
X279000D01*
X274640D01*
X274662Y349838D01*
X275111Y348754D01*
X275824Y347824D01*
X276754Y347111D01*
X277559Y346777D01*
X277688Y346112D01*
Y345888D01*
X277559Y345223D01*
X276754Y344889D01*
X275824Y344176D01*
X275343Y343549D01*
X256857D01*
X256376Y344176D01*
X255446Y344889D01*
X254641Y345223D01*
X254512Y345888D01*
Y346112D01*
X254641Y346777D01*
X255446Y347111D01*
X256376Y347824D01*
X257089Y348754D01*
X257538Y349838D01*
X257559Y350000D01*
X253200D01*
X248840D01*
X248862Y349838D01*
X249310Y348754D01*
X250024Y347824D01*
X250954Y347111D01*
X251759Y346777D01*
X251888Y346112D01*
Y345888D01*
X251759Y345223D01*
X250954Y344889D01*
X250024Y344176D01*
X249543Y343549D01*
X231057D01*
X230576Y344176D01*
X229646Y344889D01*
X228841Y345223D01*
X228712Y345888D01*
Y346112D01*
X228841Y346777D01*
X229646Y347111D01*
X230576Y347824D01*
X231290Y348754D01*
X231738Y349838D01*
X231760Y350000D01*
X227400D01*
X223041D01*
X223062Y349838D01*
X223511Y348754D01*
X224224Y347824D01*
X225154Y347111D01*
X225959Y346777D01*
X226088Y346112D01*
Y345888D01*
X225959Y345223D01*
X225154Y344889D01*
X224224Y344176D01*
X223743Y343549D01*
X205257D01*
X204776Y344176D01*
X203846Y344889D01*
X203041Y345223D01*
X202912Y345888D01*
Y346112D01*
X203041Y346777D01*
X203846Y347111D01*
X204776Y347824D01*
X205489Y348754D01*
X205938Y349838D01*
X205960Y350000D01*
X201600D01*
X197240D01*
X197262Y349838D01*
X197711Y348754D01*
X198424Y347824D01*
X199354Y347111D01*
X200159Y346777D01*
X200288Y346112D01*
Y345888D01*
X200159Y345223D01*
X199354Y344889D01*
X198424Y344176D01*
X197943Y343549D01*
X179457D01*
X178976Y344176D01*
X178046Y344889D01*
X177241Y345223D01*
X177112Y345888D01*
Y346112D01*
X177241Y346777D01*
X178046Y347111D01*
X178976Y347824D01*
X179690Y348754D01*
X180138Y349838D01*
X180159Y350000D01*
X175800D01*
X171440D01*
X171462Y349838D01*
X171911Y348754D01*
X172624Y347824D01*
X173554Y347111D01*
X174359Y346777D01*
X174488Y346112D01*
Y345888D01*
X174359Y345223D01*
X173554Y344889D01*
X172624Y344176D01*
X172143Y343549D01*
X161575D01*
Y344585D01*
X155425D01*
Y343549D01*
X153657D01*
X153176Y344176D01*
X152246Y344889D01*
X151441Y345223D01*
X151312Y345888D01*
Y346112D01*
X151441Y346777D01*
X152246Y347111D01*
X153176Y347824D01*
X153890Y348754D01*
X154338Y349838D01*
X154359Y350000D01*
X150000D01*
Y352000D01*
X155026D01*
X155606Y352626D01*
X155724Y352669D01*
X157000D01*
Y355646D01*
X159000D01*
Y352669D01*
X162000D01*
Y355646D01*
X164000D01*
Y352669D01*
X167000D01*
Y355646D01*
X169000D01*
Y352669D01*
X170076D01*
X170190Y352628D01*
X170729Y352000D01*
X175800D01*
X180775D01*
X181400Y352624D01*
X181524Y352669D01*
X183000D01*
Y355646D01*
X185000D01*
Y352669D01*
X187661D01*
Y355646D01*
X189661D01*
Y352669D01*
X192500D01*
Y355646D01*
X194500D01*
Y352669D01*
X195876D01*
X195997Y352625D01*
X196598Y352000D01*
X201600D01*
X205960D01*
X205938Y352162D01*
X205489Y353246D01*
X204776Y354176D01*
X203846Y354889D01*
X203465Y355047D01*
X203763Y356547D01*
X206053D01*
Y358451D01*
X211425D01*
Y356646D01*
X214500D01*
Y355646D01*
X215500D01*
Y352669D01*
X218500D01*
Y355646D01*
X220500D01*
Y352669D01*
X221676D01*
X221792Y352627D01*
X222351Y352000D01*
X227400D01*
X231760D01*
X231738Y352162D01*
X231290Y353246D01*
X230576Y354176D01*
X229646Y354889D01*
X229265Y355047D01*
X229563Y356547D01*
X231853D01*
Y358451D01*
X237425D01*
Y356646D01*
X240500D01*
Y355646D01*
X241500D01*
Y352669D01*
X244500D01*
Y355646D01*
X246500D01*
Y352669D01*
X247476D01*
X247588Y352628D01*
X248109Y352000D01*
X253200D01*
X257559D01*
X257538Y352162D01*
X257089Y353246D01*
X256376Y354176D01*
X255446Y354889D01*
X255065Y355047D01*
X255363Y356547D01*
X257653D01*
Y358451D01*
X262925D01*
Y356646D01*
X266000D01*
Y355646D01*
X267000D01*
Y352669D01*
X270000D01*
Y355646D01*
X272000D01*
Y352669D01*
X273276D01*
X273394Y352626D01*
X273974Y352000D01*
X279000D01*
X283360D01*
X283338Y352162D01*
X282890Y353246D01*
X282176Y354176D01*
X281246Y354889D01*
X280865Y355047D01*
X281163Y356547D01*
X283453D01*
Y365453D01*
D02*
G37*
G36*
X265000Y354646D02*
X262925D01*
Y352669D01*
X265000D01*
Y354646D01*
D02*
G37*
G36*
X239500D02*
X237425D01*
Y352669D01*
X239500D01*
Y354646D01*
D02*
G37*
G36*
X213500D02*
X211425D01*
Y352669D01*
X213500D01*
Y354646D01*
D02*
G37*
G36*
X179791Y251575D02*
X177815D01*
Y249500D01*
X179791D01*
Y251575D01*
D02*
G37*
G36*
Y242500D02*
X177815D01*
Y240425D01*
X179791D01*
Y242500D01*
D02*
G37*
G36*
X157000Y244696D02*
Y239342D01*
X162354D01*
X162328Y239601D01*
X161961Y240812D01*
X161365Y241927D01*
X160563Y242905D01*
X159585Y243707D01*
X158469Y244304D01*
X157259Y244671D01*
X157000Y244696D01*
D02*
G37*
G36*
X155000D02*
X154741Y244671D01*
X153531Y244304D01*
X152415Y243707D01*
X151437Y242905D01*
X150635Y241927D01*
X150039Y240812D01*
X149672Y239601D01*
X149646Y239342D01*
X155000D01*
Y244696D01*
D02*
G37*
G36*
X162354Y237343D02*
X157000D01*
Y231989D01*
X157259Y232014D01*
X158469Y232381D01*
X159585Y232978D01*
X160563Y233780D01*
X161365Y234758D01*
X161961Y235873D01*
X162328Y237084D01*
X162354Y237343D01*
D02*
G37*
G36*
X155000D02*
X149646D01*
X149672Y237084D01*
X150039Y235873D01*
X150635Y234758D01*
X151437Y233780D01*
X152415Y232978D01*
X153531Y232381D01*
X154741Y232014D01*
X155000Y231989D01*
Y237343D01*
D02*
G37*
G36*
X187146Y230500D02*
X185169D01*
Y228425D01*
X187146D01*
Y230500D01*
D02*
G37*
G36*
X198886Y213359D02*
X198723Y213338D01*
X197640Y212890D01*
X196710Y212176D01*
X195996Y211246D01*
X195548Y210162D01*
X195526Y210000D01*
X198886D01*
Y213359D01*
D02*
G37*
G36*
X231000D02*
X230838Y213338D01*
X229754Y212890D01*
X228824Y212176D01*
X228111Y211246D01*
X227662Y210162D01*
X227641Y210000D01*
X231000D01*
Y213359D01*
D02*
G37*
G36*
X198886Y208000D02*
X195526D01*
X195548Y207838D01*
X195996Y206754D01*
X196710Y205824D01*
X197640Y205111D01*
X198723Y204662D01*
X198886Y204641D01*
Y208000D01*
D02*
G37*
G36*
X231000D02*
X227641D01*
X227662Y207838D01*
X228111Y206754D01*
X228824Y205824D01*
X229754Y205111D01*
X230838Y204662D01*
X231000Y204641D01*
Y208000D01*
D02*
G37*
%LPD*%
G36*
X224224Y327824D02*
X225154Y327111D01*
X225959Y326777D01*
X226088Y326112D01*
Y325888D01*
X225959Y325223D01*
X225154Y324889D01*
X224224Y324176D01*
X223511Y323246D01*
X223164Y322408D01*
X205878Y305122D01*
X205381Y304378D01*
X205206Y303500D01*
Y293695D01*
X205203Y293692D01*
X203706Y293030D01*
X203461Y293194D01*
X202583Y293369D01*
X193238D01*
X192951Y293589D01*
X192251Y293879D01*
X191500Y293978D01*
X190749Y293879D01*
X190294Y293690D01*
X189454Y294028D01*
X188794Y294517D01*
Y306904D01*
X190596Y308706D01*
X197748D01*
X198424Y307824D01*
X199354Y307111D01*
X200438Y306662D01*
X201600Y306509D01*
X202762Y306662D01*
X203846Y307111D01*
X204776Y307824D01*
X205489Y308754D01*
X205938Y309838D01*
X206091Y311000D01*
X205938Y312162D01*
X205489Y313246D01*
X204776Y314176D01*
X203846Y314890D01*
X203041Y315223D01*
X202912Y315888D01*
Y316112D01*
X203041Y316777D01*
X203846Y317110D01*
X204776Y317824D01*
X205489Y318754D01*
X205938Y319838D01*
X206091Y321000D01*
X205938Y322162D01*
X205489Y323246D01*
X204776Y324176D01*
X203846Y324889D01*
X203041Y325223D01*
X202912Y325888D01*
Y326112D01*
X203041Y326777D01*
X203846Y327111D01*
X204776Y327824D01*
X205257Y328451D01*
X223743D01*
X224224Y327824D01*
D02*
G37*
G36*
X265500Y263141D02*
X265662Y263162D01*
X266746Y263611D01*
X267676Y264324D01*
X268390Y265254D01*
X268723Y266059D01*
X269388Y266188D01*
X269612D01*
X270277Y266059D01*
X270610Y265254D01*
X271324Y264324D01*
X271951Y263843D01*
Y262000D01*
X272145Y261025D01*
X272698Y260198D01*
X285951Y246944D01*
Y241068D01*
X284461Y240812D01*
X283865Y241927D01*
X283063Y242905D01*
X282085Y243707D01*
X280969Y244304D01*
X279759Y244671D01*
X278500Y244795D01*
X277241Y244671D01*
X276031Y244304D01*
X274915Y243707D01*
X273938Y242905D01*
X273135Y241927D01*
X272836Y241368D01*
X262343D01*
X261559Y241265D01*
X260830Y240963D01*
X260203Y240482D01*
X260203Y240482D01*
X252360Y232640D01*
X251880Y232013D01*
X251577Y231283D01*
X251474Y230500D01*
Y226612D01*
X251300Y226565D01*
X249800Y227715D01*
Y229050D01*
X243200D01*
Y228776D01*
X238250D01*
X238250Y228776D01*
X237467Y228673D01*
X236737Y228370D01*
X236110Y227890D01*
X233521Y225300D01*
X230500Y225300D01*
X229800Y226510D01*
Y229050D01*
X223200D01*
Y226624D01*
X218500D01*
X218230Y226825D01*
X218058Y228668D01*
X219768Y230378D01*
X220265Y231122D01*
X220440Y232000D01*
Y238450D01*
X225950D01*
Y237200D01*
X226701D01*
Y236500D01*
X226895Y235525D01*
X227448Y234698D01*
X227948Y234198D01*
X228775Y233645D01*
X229750Y233451D01*
X231425D01*
X232245Y233614D01*
X233754D01*
X234575Y233451D01*
X235819D01*
X235986Y233049D01*
X236447Y232447D01*
X237049Y231986D01*
X237749Y231696D01*
X238500Y231597D01*
X239251Y231696D01*
X239951Y231986D01*
X240553Y232447D01*
X241014Y233049D01*
X241304Y233749D01*
X241403Y234500D01*
X241304Y235251D01*
X241014Y235951D01*
X240553Y236553D01*
X240050Y237200D01*
Y243800D01*
X237510D01*
X236300Y244500D01*
Y247521D01*
X246640Y257860D01*
X246640Y257860D01*
X247120Y258487D01*
X247423Y259217D01*
X247526Y260000D01*
X247526Y260000D01*
Y264209D01*
X247676Y264324D01*
X248390Y265254D01*
X248723Y266059D01*
X249388Y266188D01*
X249612D01*
X250277Y266059D01*
X250610Y265254D01*
X251324Y264324D01*
X252254Y263611D01*
X253338Y263162D01*
X254500Y263009D01*
X255662Y263162D01*
X256746Y263611D01*
X257676Y264324D01*
X258389Y265254D01*
X258723Y266059D01*
X259388Y266188D01*
X259612D01*
X260277Y266059D01*
X260611Y265254D01*
X261324Y264324D01*
X262254Y263611D01*
X263338Y263162D01*
X263500Y263141D01*
Y267500D01*
X265500D01*
Y263141D01*
D02*
G37*
G36*
X199130Y265311D02*
X198130D01*
Y263925D01*
X200918D01*
X200960Y263862D01*
X201705Y263365D01*
X202583Y263190D01*
Y261925D01*
X198130D01*
Y260539D01*
X197113Y259461D01*
X194146D01*
Y256386D01*
X192146D01*
Y259461D01*
X190601D01*
X190245Y259677D01*
X189353Y260623D01*
X189403Y261000D01*
X189304Y261751D01*
X189014Y262451D01*
X188977Y262500D01*
X189014Y262549D01*
X189304Y263249D01*
X189403Y264000D01*
X189304Y264751D01*
X189014Y265451D01*
X188553Y266053D01*
X187951Y266514D01*
X187251Y266804D01*
X187218Y266808D01*
X187252Y267324D01*
X187252D01*
X187252Y267324D01*
X188344Y268308D01*
X199130D01*
Y265311D01*
D02*
G37*
G36*
X208773Y259499D02*
X209267Y257872D01*
X207198Y255802D01*
X206645Y254976D01*
X206451Y254000D01*
Y251331D01*
X205925D01*
Y245378D01*
Y240155D01*
X205925Y240155D01*
X205925Y240155D01*
X205209Y239833D01*
Y236500D01*
X203209D01*
Y239575D01*
X201435D01*
Y240882D01*
X201242Y241853D01*
X201460Y242180D01*
X201603Y242900D01*
Y245000D01*
X195146D01*
Y247000D01*
X201603D01*
Y249100D01*
X201460Y249820D01*
X201052Y250430D01*
X201044Y250436D01*
X201180Y251118D01*
Y253311D01*
X201831D01*
Y254092D01*
X202386D01*
X203264Y254266D01*
X204008Y254764D01*
X208748Y259504D01*
X208773Y259499D01*
D02*
G37*
G36*
X285951Y235617D02*
Y231556D01*
X283444Y229049D01*
X274925D01*
X273950Y228855D01*
X273123Y228302D01*
X257740Y212920D01*
X256453Y213453D01*
Y213453D01*
X249807D01*
X249800Y214953D01*
Y217490D01*
X250500Y218700D01*
X251300Y218700D01*
X258500D01*
Y225300D01*
X257526D01*
Y229247D01*
X263596Y235317D01*
X272836D01*
X273135Y234758D01*
X273938Y233780D01*
X274915Y232978D01*
X276031Y232381D01*
X277241Y232014D01*
X278500Y231890D01*
X279759Y232014D01*
X280969Y232381D01*
X282085Y232978D01*
X283063Y233780D01*
X283865Y234758D01*
X284461Y235873D01*
X285951Y235617D01*
D02*
G37*
G36*
X289451Y225886D02*
Y219056D01*
X285678Y215283D01*
X284460Y216186D01*
X284461Y216188D01*
X284828Y217399D01*
X284854Y217657D01*
X279500D01*
Y212304D01*
X279759Y212329D01*
X280969Y212696D01*
X280971Y212697D01*
X281875Y211479D01*
X276444Y206049D01*
X260127D01*
X260039Y206162D01*
X259579Y207549D01*
X270561Y218531D01*
X272116Y217965D01*
X272172Y217399D01*
X272539Y216188D01*
X273135Y215073D01*
X273938Y214095D01*
X274915Y213293D01*
X276031Y212696D01*
X277241Y212329D01*
X277500Y212304D01*
Y218657D01*
X278500D01*
Y219657D01*
X284854D01*
X284828Y219916D01*
X284461Y221127D01*
X283865Y222242D01*
X283694Y222451D01*
X284403Y223951D01*
X284500D01*
X285475Y224145D01*
X286302Y224698D01*
X288065Y226460D01*
X289451Y225886D01*
D02*
G37*
D10*
X201600Y361000D02*
X227400D01*
X238500Y217000D02*
X239141D01*
X241000Y218859D01*
X238500Y217000D02*
X240890D01*
X241000Y217110D01*
X253200Y361000D02*
X279000D01*
X227400D02*
X253200D01*
X175800D02*
X201600D01*
X151500D02*
X175800D01*
X159000Y331000D02*
X175800D01*
X159000Y341000D02*
X175800D01*
X241000Y217110D02*
X242140Y218250D01*
X191208Y217110D02*
X194110D01*
X156000D02*
X191208D01*
X241000Y218859D02*
Y221925D01*
X236750Y239750D02*
Y240500D01*
Y238175D02*
Y239750D01*
X235500Y236925D02*
X236750Y238175D01*
X234575Y236000D02*
X235500Y236925D01*
Y238500D01*
X236750Y239750D01*
Y236250D02*
Y238175D01*
X237000Y236000D02*
X238500Y234500D01*
X236750Y236250D02*
X237000Y236000D01*
X234575D02*
X237000D01*
X242140Y218250D02*
X246500D01*
X229750Y236000D02*
X231425D01*
X229250Y236500D02*
X229750Y236000D01*
X229250Y236500D02*
Y240500D01*
X198500Y221500D02*
Y226500D01*
X194110Y217110D02*
X198500Y221500D01*
X164500Y300500D02*
X165000D01*
X162000Y298000D02*
X164500Y300500D01*
X159000Y275500D02*
Y305000D01*
X162000Y262000D02*
Y298000D01*
X156500Y256500D02*
X162000Y262000D01*
X150000Y256500D02*
X156500D01*
X150000Y266500D02*
X159000Y275500D01*
X198500Y236500D02*
X198886Y236886D01*
X198500Y231500D02*
Y236500D01*
Y226500D02*
Y231500D01*
X198886Y236886D02*
Y240882D01*
X209000Y242646D02*
X209886Y241760D01*
Y209000D02*
Y241760D01*
X215220Y220925D02*
X218500D01*
X214000Y222146D02*
X215220Y220925D01*
X214000Y217146D02*
X214146Y217000D01*
X214000Y217146D02*
Y222146D01*
X213000Y255500D02*
X214000D01*
X211425D02*
X213000D01*
Y253575D02*
X214000D01*
X212500D02*
X213000D01*
Y255500D02*
Y258000D01*
Y253575D02*
Y255500D01*
X214000D02*
Y257000D01*
Y253575D02*
Y255500D01*
X211000Y255075D02*
X211425Y255500D01*
X211000Y256000D02*
X213000Y258000D01*
X209000Y254000D02*
X211000Y256000D01*
X209425Y253575D02*
X212500D01*
X211000Y255075D02*
Y256000D01*
Y255075D02*
X212500Y253575D01*
X215000Y258000D02*
X218146D01*
X213000D02*
X215000D01*
X214000Y257000D02*
X215000Y258000D01*
X209000Y254000D02*
X209425Y253575D01*
X209000Y248354D02*
Y254000D01*
X222000Y224075D02*
X224825D01*
X218500D02*
X222000D01*
X224825D02*
X226500Y225750D01*
X284500Y226500D02*
X288500Y230500D01*
X274925Y226500D02*
X284500D01*
X257425Y209000D02*
X274925Y226500D01*
X288500Y230500D02*
Y248000D01*
X274500Y262000D02*
X288500Y248000D01*
X274500Y262000D02*
Y267500D01*
X279500Y262500D02*
X292000Y250000D01*
Y218000D02*
Y250000D01*
X277500Y203500D02*
X292000Y218000D01*
X279500Y262500D02*
Y272500D01*
X252000Y209000D02*
X257425D01*
X190000Y240882D02*
X191405D01*
X188146D02*
X190000D01*
X188146Y239028D02*
X190000Y240882D01*
X187146Y238028D02*
X188146Y239028D01*
Y240882D01*
Y236500D02*
Y239028D01*
X187146Y237500D02*
Y238028D01*
X186882Y240882D02*
X188146D01*
X186500Y243500D02*
X188146Y241854D01*
Y240882D02*
Y241854D01*
X186500Y240500D02*
X186882Y240882D01*
X242000Y209000D02*
X247500Y203500D01*
X277500D01*
X279500Y272500D02*
X284500Y277500D01*
X201600Y331000D02*
X227400D01*
X287500Y294500D02*
Y332500D01*
X279000Y341000D02*
X287500Y332500D01*
X253200Y341000D02*
X279000D01*
X227400D02*
X253200D01*
X201600D02*
X227400D01*
X175800D02*
X201600D01*
X150000D02*
X159000D01*
X253200Y331000D02*
X279000D01*
X227400D02*
X253200D01*
X175800D02*
X201600D01*
X150000D02*
X159000D01*
D19*
X214000Y227854D02*
D03*
Y222146D02*
D03*
X209000Y242646D02*
D03*
Y248354D02*
D03*
X184000Y361354D02*
D03*
Y355646D02*
D03*
X168000Y361354D02*
D03*
Y355646D02*
D03*
X163000Y361354D02*
D03*
Y355646D02*
D03*
X158000Y361354D02*
D03*
Y355646D02*
D03*
X158500Y341609D02*
D03*
Y335900D02*
D03*
X165233Y331146D02*
D03*
Y336854D02*
D03*
X219500Y361354D02*
D03*
Y355646D02*
D03*
X214500Y361354D02*
D03*
Y355646D02*
D03*
X193500Y361354D02*
D03*
Y355646D02*
D03*
X188661Y361354D02*
D03*
Y355646D02*
D03*
X271000Y361354D02*
D03*
Y355646D02*
D03*
X266000Y361354D02*
D03*
Y355646D02*
D03*
X245500Y361354D02*
D03*
Y355646D02*
D03*
X240500Y361354D02*
D03*
Y355646D02*
D03*
D20*
X223854Y258000D02*
D03*
X218146D02*
D03*
X219854Y217000D02*
D03*
X214146D02*
D03*
X198500Y236500D02*
D03*
X204209D02*
D03*
X198500Y231500D02*
D03*
X204209D02*
D03*
X198500Y226500D02*
D03*
X204209D02*
D03*
X186500Y243500D02*
D03*
X180791D02*
D03*
X186500Y248500D02*
D03*
X180791D02*
D03*
X193854Y236500D02*
D03*
X188146D02*
D03*
X193146Y256386D02*
D03*
X198854D02*
D03*
X188146Y231500D02*
D03*
X193854D02*
D03*
D21*
X254500Y222000D02*
D03*
X234500D02*
D03*
X222500Y241750D02*
D03*
D22*
X246500Y225750D02*
D03*
Y218250D02*
D03*
X226500Y225750D02*
D03*
Y218250D02*
D03*
X214500Y245500D02*
D03*
Y238000D02*
D03*
D23*
X241000Y221925D02*
D03*
Y225075D02*
D03*
X218500Y220925D02*
D03*
Y224075D02*
D03*
X222000Y220925D02*
D03*
Y224075D02*
D03*
X218146Y253575D02*
D03*
Y250425D02*
D03*
X214000Y253575D02*
D03*
Y250425D02*
D03*
D24*
X202583Y268043D02*
D03*
X225417Y278279D02*
D03*
X202583Y270602D02*
D03*
Y273161D02*
D03*
Y275721D02*
D03*
Y291075D02*
D03*
X225417Y280839D02*
D03*
X202583Y288516D02*
D03*
X225417Y283398D02*
D03*
Y288516D02*
D03*
Y291075D02*
D03*
Y285957D02*
D03*
X202583Y278279D02*
D03*
Y280839D02*
D03*
Y285957D02*
D03*
Y283398D02*
D03*
X225417Y265484D02*
D03*
Y268043D02*
D03*
Y262925D02*
D03*
X202583D02*
D03*
Y265484D02*
D03*
X225417Y270602D02*
D03*
Y273161D02*
D03*
Y275721D02*
D03*
D25*
X195146Y246000D02*
D03*
D26*
X198886Y240882D02*
D03*
X191405Y251118D02*
D03*
X198886D02*
D03*
X191405Y240882D02*
D03*
X195146D02*
D03*
X195146Y251118D02*
D03*
D27*
X234575Y236000D02*
D03*
X231425D02*
D03*
D28*
X233000Y248500D02*
D03*
D29*
X229250Y240500D02*
D03*
X236750D02*
D03*
D45*
X186500Y261000D02*
Y264000D01*
Y249500D02*
Y261000D01*
X222276Y253575D02*
X222351Y253500D01*
X218146Y253575D02*
X222276D01*
X204209Y226500D02*
X206451D01*
X204209Y231500D02*
X206451D01*
X204209Y236500D02*
X206451D01*
X195146Y246000D02*
X195146Y246000D01*
Y251118D01*
X245700Y313500D02*
X253200Y321000D01*
X238794Y313500D02*
X245700D01*
X230794Y305500D02*
X238794Y313500D01*
X240462Y311000D02*
X253200D01*
X232185Y302722D02*
X240462Y311000D01*
X220722Y302722D02*
X232185D01*
X218017Y305500D02*
X230794D01*
X230028Y283398D02*
X231425Y282000D01*
X225417Y283398D02*
X230028D01*
X214500Y234000D02*
Y238000D01*
X223825Y220925D02*
X226425D01*
X222000D02*
X223825D01*
X226500Y218250D01*
X226425Y220925D02*
X226500Y221000D01*
X219500Y351000D02*
X227400D01*
X219500D02*
Y355646D01*
X214500Y351000D02*
Y355646D01*
X193500Y351000D02*
Y355646D01*
X188661Y351000D02*
Y355646D01*
X184000Y351000D02*
Y355646D01*
X168000Y351500D02*
Y355646D01*
X163000Y351500D02*
Y355646D01*
X158000Y351500D02*
Y355646D01*
X155192Y336854D02*
X165233D01*
X186500Y249500D02*
X187000Y249000D01*
X146680Y336000D02*
X154338D01*
X144500Y338180D02*
X146680Y336000D01*
X144500Y338180D02*
Y360192D01*
X150000Y361000D02*
X151500D01*
X145308D02*
X150000D01*
X144500Y360192D02*
X145308Y361000D01*
X154338Y336000D02*
X155192Y336854D01*
X196163Y287000D02*
X197206Y285957D01*
X202583D01*
X196163Y287000D02*
X197679Y288516D01*
X202583D01*
X189646Y311000D02*
X201600D01*
X186500Y307854D02*
X189646Y311000D01*
X186500Y287957D02*
Y307854D01*
X192035Y321000D02*
X201600D01*
X184000Y312965D02*
X192035Y321000D01*
X184000Y285500D02*
Y312965D01*
X229480Y265484D02*
X231183Y263782D01*
Y260683D02*
Y263782D01*
X228500Y258000D02*
X231183Y260683D01*
X234000Y257750D02*
Y265783D01*
X231740Y268043D02*
X234000Y265783D01*
X225417Y268043D02*
X231740D01*
X225417Y265484D02*
X229480D01*
X223750Y247500D02*
X234000Y257750D01*
X219721Y278279D02*
X225417D01*
X218000Y280000D02*
X219721Y278279D01*
X218000Y280000D02*
Y295060D01*
X220500Y281339D02*
Y292500D01*
Y281339D02*
X221000Y280839D01*
X225417D01*
X215500Y278500D02*
X218280Y275721D01*
X271000Y297000D02*
X279000Y305000D01*
X225000Y297000D02*
X271000D01*
X220500Y292500D02*
X225000Y297000D01*
X225417Y288516D02*
X275516D01*
X225417Y285957D02*
X278957D01*
X270000Y300000D02*
X274000Y304000D01*
X222940Y300000D02*
X270000D01*
X218000Y295060D02*
X222940Y300000D01*
X215500Y297500D02*
X220722Y302722D01*
X213000Y300483D02*
X218017Y305500D01*
X215500Y278500D02*
Y297500D01*
X213000Y276500D02*
Y300483D01*
X225417Y275721D02*
X227000D01*
X235000Y292500D02*
X235500D01*
X233575Y291075D02*
X235000Y292500D01*
X225417Y291075D02*
X233575D01*
X191500D02*
X202583D01*
X219124Y311000D02*
X227400D01*
X210000Y301876D02*
X219124Y311000D01*
X210000Y267000D02*
Y301876D01*
X225000Y321000D02*
X227400D01*
X207500Y303500D02*
X225000Y321000D01*
X207500Y269000D02*
Y303500D01*
X191059Y283398D02*
X202583D01*
X186500Y287957D02*
X191059Y283398D01*
X186500Y248500D02*
X187000Y249000D01*
X279000Y305000D02*
Y311000D01*
X274000Y304000D02*
Y316000D01*
X220500Y247500D02*
X223750D01*
X218146Y245146D02*
X220500Y247500D01*
X218146Y232000D02*
Y245146D01*
X163000Y311000D02*
X170000Y304000D01*
Y283500D02*
Y304000D01*
Y283500D02*
X182898Y270602D01*
X157500Y321000D02*
X173000Y305500D01*
Y284500D02*
Y305500D01*
Y284500D02*
X184339Y273161D01*
X150000Y311000D02*
X163000D01*
X150000Y321000D02*
X157500D01*
X193854Y231500D02*
Y236500D01*
X195146Y237791D01*
Y240882D01*
X198886Y256386D02*
Y256886D01*
Y251118D02*
Y256386D01*
X202386D01*
X198854D02*
X198886D01*
X214000Y227854D02*
X218146Y232000D01*
X223854Y258000D02*
X228500D01*
X214000Y246000D02*
X214500Y245500D01*
X214000Y246000D02*
Y250425D01*
X218146D01*
X202386Y256386D02*
X208925Y262925D01*
X225417D01*
X216339Y273161D02*
X225417D01*
X213000Y276500D02*
X216339Y273161D01*
X218280Y275721D02*
X225417D01*
X278957Y285957D02*
X287500Y294500D01*
X279000Y331000D02*
X284000Y326000D01*
Y297000D02*
Y326000D01*
X275516Y288516D02*
X284000Y297000D01*
X182898Y270602D02*
X202583D01*
X184339Y273161D02*
X202583D01*
X175800Y285700D02*
X185780Y275721D01*
X175800Y285700D02*
Y311000D01*
X185780Y275721D02*
X202583D01*
X187221Y278279D02*
X202583D01*
X181500Y284000D02*
X187221Y278279D01*
X181500Y284000D02*
Y315300D01*
X184000Y285500D02*
X188661Y280839D01*
X175800Y321000D02*
X181500Y315300D01*
X188661Y280839D02*
X202583D01*
X274000Y316000D02*
X279000Y321000D01*
X208484Y265484D02*
X210000Y267000D01*
X202583Y265484D02*
X208484D01*
X202583Y268043D02*
X206543D01*
X207500Y269000D01*
D46*
X238250Y225750D02*
X246500D01*
X234500Y222000D02*
X238250Y225750D01*
X219854Y217000D02*
X219886Y216969D01*
Y209000D02*
Y216969D01*
X244500Y260000D02*
Y267500D01*
X233000Y248500D02*
X244500Y260000D01*
X262343Y238342D02*
X278500D01*
X254500Y230500D02*
X262343Y238342D01*
X254500Y222000D02*
Y230500D01*
X187146Y237500D02*
X188146Y236500D01*
X186500Y238146D02*
X187146Y237500D01*
X186500Y240500D02*
Y243500D01*
Y238146D02*
Y240500D01*
Y243500D02*
Y248500D01*
X228000Y241750D02*
X229250Y240500D01*
X222500Y241750D02*
X228000D01*
D47*
X219886Y209000D02*
D03*
X252000D02*
D03*
X284500Y277500D02*
D03*
D48*
X209886Y209000D02*
D03*
X199886D02*
D03*
X175800Y351000D02*
D03*
Y341000D02*
D03*
Y331000D02*
D03*
Y321000D02*
D03*
Y311000D02*
D03*
X150000Y351000D02*
D03*
Y341000D02*
D03*
Y331000D02*
D03*
Y321000D02*
D03*
Y311000D02*
D03*
Y266500D02*
D03*
Y276500D02*
D03*
Y286500D02*
D03*
X227400Y351000D02*
D03*
Y341000D02*
D03*
Y331000D02*
D03*
Y321000D02*
D03*
Y311000D02*
D03*
X201600Y351000D02*
D03*
Y341000D02*
D03*
Y331000D02*
D03*
Y321000D02*
D03*
Y311000D02*
D03*
X242000Y209000D02*
D03*
X232000D02*
D03*
X254500Y267500D02*
D03*
Y277500D02*
D03*
X264500Y267500D02*
D03*
Y277500D02*
D03*
X274500Y267500D02*
D03*
Y277500D02*
D03*
X284500Y267500D02*
D03*
X244500D02*
D03*
Y277500D02*
D03*
X279000Y351000D02*
D03*
Y341000D02*
D03*
Y331000D02*
D03*
Y321000D02*
D03*
Y311000D02*
D03*
X253200Y351000D02*
D03*
Y341000D02*
D03*
Y331000D02*
D03*
Y321000D02*
D03*
Y311000D02*
D03*
D49*
X175800Y361000D02*
D03*
X150000D02*
D03*
Y256500D02*
D03*
X227400Y361000D02*
D03*
X201600D02*
D03*
X279000D02*
D03*
X253200D02*
D03*
D50*
X278500Y238342D02*
D03*
Y218657D02*
D03*
X156000D02*
D03*
Y238342D02*
D03*
D51*
X186500Y261000D02*
D03*
X290000Y360000D02*
D03*
X295000Y350000D02*
D03*
X290000Y340000D02*
D03*
X295000Y330000D02*
D03*
Y310000D02*
D03*
Y290000D02*
D03*
Y270000D02*
D03*
X290000Y260000D02*
D03*
X295000Y210000D02*
D03*
X290000Y200000D02*
D03*
X285000Y350000D02*
D03*
X280000Y200000D02*
D03*
X270000Y260000D02*
D03*
X275000Y250000D02*
D03*
Y210000D02*
D03*
X260000Y260000D02*
D03*
X265000Y250000D02*
D03*
Y210000D02*
D03*
X250000Y260000D02*
D03*
X255000Y250000D02*
D03*
X250000Y240000D02*
D03*
X245000Y250000D02*
D03*
X240000Y200000D02*
D03*
X235000Y350000D02*
D03*
X230000Y200000D02*
D03*
X220000D02*
D03*
X210000Y320000D02*
D03*
Y200000D02*
D03*
X200000D02*
D03*
X190000D02*
D03*
X180000Y260000D02*
D03*
X185000Y210000D02*
D03*
X180000Y200000D02*
D03*
X175000Y270000D02*
D03*
X170000Y260000D02*
D03*
Y240000D02*
D03*
X175000Y230000D02*
D03*
Y210000D02*
D03*
X170000Y200000D02*
D03*
X165000Y250000D02*
D03*
Y230000D02*
D03*
Y210000D02*
D03*
X160000Y200000D02*
D03*
X150000Y300000D02*
D03*
X155000Y250000D02*
D03*
X150000Y200000D02*
D03*
X140000Y360000D02*
D03*
Y340000D02*
D03*
Y320000D02*
D03*
Y300000D02*
D03*
X145000Y290000D02*
D03*
X140000Y280000D02*
D03*
X145000Y270000D02*
D03*
X140000Y260000D02*
D03*
X145000Y250000D02*
D03*
X140000Y240000D02*
D03*
X145000Y230000D02*
D03*
X140000Y220000D02*
D03*
X145000Y210000D02*
D03*
X140000Y200000D02*
D03*
X238500Y217000D02*
D03*
X206451Y226500D02*
D03*
Y231500D02*
D03*
Y236500D02*
D03*
X238000Y260000D02*
D03*
X231425Y272000D02*
D03*
Y282000D02*
D03*
X261500Y207500D02*
D03*
X271324Y230500D02*
D03*
X262500D02*
D03*
Y220500D02*
D03*
X259579Y264209D02*
D03*
X249612Y263862D02*
D03*
X237777Y245500D02*
D03*
X250000Y230500D02*
D03*
X231425Y227000D02*
D03*
X219854Y228000D02*
D03*
X222000Y236633D02*
D03*
X214500Y234000D02*
D03*
X226500Y221000D02*
D03*
X204209Y221673D02*
D03*
X188146Y226624D02*
D03*
X183474Y231500D02*
D03*
X180791Y239000D02*
D03*
Y253000D02*
D03*
X175800Y243500D02*
D03*
Y248500D02*
D03*
X222351Y253500D02*
D03*
X204108Y249100D02*
D03*
Y241068D02*
D03*
X198886Y246000D02*
D03*
X195146D02*
D03*
X191959D02*
D03*
X195876Y266514D02*
D03*
X191500Y261500D02*
D03*
X195876Y262925D02*
D03*
X192500Y305000D02*
D03*
X201435Y300000D02*
D03*
X192744Y298000D02*
D03*
X196163Y287000D02*
D03*
X271000Y351000D02*
D03*
X266000D02*
D03*
X245500D02*
D03*
X240500D02*
D03*
X219500D02*
D03*
X214500D02*
D03*
X193500D02*
D03*
X188661D02*
D03*
X184000D02*
D03*
X168000Y351500D02*
D03*
X163000D02*
D03*
X158000D02*
D03*
X241390Y217110D02*
D03*
X191208D02*
D03*
X235500Y292500D02*
D03*
X191500Y291075D02*
D03*
X186500Y264000D02*
D03*
X238500Y234500D02*
D03*
X194110Y217110D02*
D03*
X165000Y300500D02*
D03*
X159000Y305000D02*
D03*
M02*
