G04*
G04 #@! TF.GenerationSoftware,Altium Limited,Altium Designer,19.0.10 (269)*
G04*
G04 Layer_Color=8388736*
%FSLAX25Y25*%
%MOIN*%
G70*
G01*
G75*
%ADD30R,0.03950X0.03753*%
%ADD31R,0.03753X0.03950*%
%ADD32R,0.05800X0.04400*%
%ADD33R,0.04400X0.04400*%
%ADD34R,0.02572X0.02572*%
%ADD35R,0.06706X0.02572*%
G04:AMPARAMS|DCode=36|XSize=76.9mil|YSize=106.42mil|CornerRadius=7.45mil|HoleSize=0mil|Usage=FLASHONLY|Rotation=270.000|XOffset=0mil|YOffset=0mil|HoleType=Round|Shape=RoundedRectangle|*
%AMROUNDEDRECTD36*
21,1,0.07690,0.09153,0,0,270.0*
21,1,0.06201,0.10642,0,0,270.0*
1,1,0.01489,-0.04577,-0.03100*
1,1,0.01489,-0.04577,0.03100*
1,1,0.01489,0.04577,0.03100*
1,1,0.01489,0.04577,-0.03100*
%
%ADD36ROUNDEDRECTD36*%
%ADD37R,0.02572X0.02769*%
%ADD38R,0.02572X0.02572*%
%ADD39R,0.04400X0.05800*%
%ADD40R,0.04400X0.04400*%
%ADD41R,0.06706X0.06706*%
%ADD42C,0.06706*%
%ADD43R,0.06706X0.06706*%
%ADD44C,0.10642*%
D30*
X214000Y227854D02*
D03*
Y222146D02*
D03*
X209000Y242646D02*
D03*
Y248354D02*
D03*
X184000Y361354D02*
D03*
Y355646D02*
D03*
X168000Y361354D02*
D03*
Y355646D02*
D03*
X163000Y361354D02*
D03*
Y355646D02*
D03*
X158000Y361354D02*
D03*
Y355646D02*
D03*
X158500Y341609D02*
D03*
Y335900D02*
D03*
X165233Y331146D02*
D03*
Y336854D02*
D03*
X219500Y361354D02*
D03*
Y355646D02*
D03*
X214500Y361354D02*
D03*
Y355646D02*
D03*
X193500Y361354D02*
D03*
Y355646D02*
D03*
X188661Y361354D02*
D03*
Y355646D02*
D03*
X271000Y361354D02*
D03*
Y355646D02*
D03*
X266000Y361354D02*
D03*
Y355646D02*
D03*
X245500Y361354D02*
D03*
Y355646D02*
D03*
X240500Y361354D02*
D03*
Y355646D02*
D03*
D31*
X223854Y258000D02*
D03*
X218146D02*
D03*
X219854Y217000D02*
D03*
X214146D02*
D03*
X198500Y236500D02*
D03*
X204209D02*
D03*
X198500Y231500D02*
D03*
X204209D02*
D03*
X198500Y226500D02*
D03*
X204209D02*
D03*
X186500Y243500D02*
D03*
X180791D02*
D03*
X186500Y248500D02*
D03*
X180791D02*
D03*
X193854Y236500D02*
D03*
X188146D02*
D03*
X193146Y256386D02*
D03*
X198854D02*
D03*
X188146Y231500D02*
D03*
X193854D02*
D03*
D32*
X254500Y222000D02*
D03*
X234500D02*
D03*
X222500Y241750D02*
D03*
D33*
X246500Y225750D02*
D03*
Y218250D02*
D03*
X226500Y225750D02*
D03*
Y218250D02*
D03*
X214500Y245500D02*
D03*
Y238000D02*
D03*
D34*
X241000Y221925D02*
D03*
Y225075D02*
D03*
X218500Y220925D02*
D03*
Y224075D02*
D03*
X222000Y220925D02*
D03*
Y224075D02*
D03*
X218146Y253575D02*
D03*
Y250425D02*
D03*
X214000Y253575D02*
D03*
Y250425D02*
D03*
D35*
X202583Y268043D02*
D03*
X225417Y278279D02*
D03*
X202583Y270602D02*
D03*
Y273161D02*
D03*
Y275721D02*
D03*
Y291075D02*
D03*
X225417Y280839D02*
D03*
X202583Y288516D02*
D03*
X225417Y283398D02*
D03*
Y288516D02*
D03*
Y291075D02*
D03*
Y285957D02*
D03*
X202583Y278279D02*
D03*
Y280839D02*
D03*
Y285957D02*
D03*
Y283398D02*
D03*
X225417Y265484D02*
D03*
Y268043D02*
D03*
Y262925D02*
D03*
X202583D02*
D03*
Y265484D02*
D03*
X225417Y270602D02*
D03*
Y273161D02*
D03*
Y275721D02*
D03*
D36*
X195146Y246000D02*
D03*
D37*
X198886Y240882D02*
D03*
X191405Y251118D02*
D03*
X198886D02*
D03*
X191405Y240882D02*
D03*
X195146D02*
D03*
X195146Y251118D02*
D03*
D38*
X234575Y236000D02*
D03*
X231425D02*
D03*
D39*
X233000Y248500D02*
D03*
D40*
X229250Y240500D02*
D03*
X236750D02*
D03*
D41*
X219886Y209000D02*
D03*
X252000D02*
D03*
X284500Y277500D02*
D03*
D42*
X209886Y209000D02*
D03*
X199886D02*
D03*
X175800Y351000D02*
D03*
Y341000D02*
D03*
Y331000D02*
D03*
Y321000D02*
D03*
Y311000D02*
D03*
X150000Y351000D02*
D03*
Y341000D02*
D03*
Y331000D02*
D03*
Y321000D02*
D03*
Y311000D02*
D03*
Y266500D02*
D03*
Y276500D02*
D03*
Y286500D02*
D03*
X227400Y351000D02*
D03*
Y341000D02*
D03*
Y331000D02*
D03*
Y321000D02*
D03*
Y311000D02*
D03*
X201600Y351000D02*
D03*
Y341000D02*
D03*
Y331000D02*
D03*
Y321000D02*
D03*
Y311000D02*
D03*
X242000Y209000D02*
D03*
X232000D02*
D03*
X254500Y267500D02*
D03*
Y277500D02*
D03*
X264500Y267500D02*
D03*
Y277500D02*
D03*
X274500Y267500D02*
D03*
Y277500D02*
D03*
X284500Y267500D02*
D03*
X244500D02*
D03*
Y277500D02*
D03*
X279000Y351000D02*
D03*
Y341000D02*
D03*
Y331000D02*
D03*
Y321000D02*
D03*
Y311000D02*
D03*
X253200Y351000D02*
D03*
Y341000D02*
D03*
Y331000D02*
D03*
Y321000D02*
D03*
Y311000D02*
D03*
D43*
X175800Y361000D02*
D03*
X150000D02*
D03*
Y256500D02*
D03*
X227400Y361000D02*
D03*
X201600D02*
D03*
X279000D02*
D03*
X253200D02*
D03*
D44*
X278500Y238342D02*
D03*
Y218657D02*
D03*
X156000D02*
D03*
Y238342D02*
D03*
M02*
