G04*
G04 #@! TF.GenerationSoftware,Altium Limited,Altium Designer,19.0.10 (269)*
G04*
G04 Layer_Physical_Order=2*
G04 Layer_Color=16711680*
%FSLAX25Y25*%
%MOIN*%
G70*
G01*
G75*
%ADD10C,0.02000*%
%ADD47R,0.05906X0.05906*%
%ADD48C,0.05906*%
%ADD49R,0.05906X0.05906*%
%ADD50C,0.09843*%
%ADD51C,0.02756*%
G36*
X300500Y197000D02*
X138000D01*
Y372500D01*
X300500D01*
Y197000D01*
D02*
G37*
%LPC*%
G36*
X154453Y365453D02*
X145547D01*
Y356547D01*
X147837D01*
X148135Y355047D01*
X147754Y354889D01*
X146824Y354176D01*
X146110Y353246D01*
X145662Y352162D01*
X145641Y352000D01*
X150000D01*
X154359D01*
X154338Y352162D01*
X153890Y353246D01*
X153176Y354176D01*
X152246Y354889D01*
X151865Y355047D01*
X152163Y356547D01*
X154453D01*
Y365453D01*
D02*
G37*
G36*
X283453D02*
X274547D01*
Y356547D01*
X276837D01*
X277135Y355047D01*
X276754Y354889D01*
X275824Y354176D01*
X275111Y353246D01*
X274662Y352162D01*
X274640Y352000D01*
X279000D01*
X283360D01*
X283338Y352162D01*
X282890Y353246D01*
X282176Y354176D01*
X281246Y354889D01*
X280865Y355047D01*
X281163Y356547D01*
X283453D01*
Y365453D01*
D02*
G37*
G36*
X257653D02*
X248747D01*
Y356547D01*
X251037D01*
X251335Y355047D01*
X250954Y354889D01*
X250024Y354176D01*
X249310Y353246D01*
X248862Y352162D01*
X248840Y352000D01*
X253200D01*
X257559D01*
X257538Y352162D01*
X257089Y353246D01*
X256376Y354176D01*
X255446Y354889D01*
X255065Y355047D01*
X255363Y356547D01*
X257653D01*
Y365453D01*
D02*
G37*
G36*
X231853D02*
X222947D01*
Y363549D01*
X214953D01*
X213977Y363355D01*
X213150Y362802D01*
X208698Y358350D01*
X208145Y357523D01*
X207951Y356547D01*
Y333000D01*
X208145Y332025D01*
X208698Y331198D01*
X211451Y328444D01*
Y294500D01*
Y292056D01*
X186267Y266872D01*
X185749Y266804D01*
X185049Y266514D01*
X184447Y266053D01*
X183986Y265451D01*
X183696Y264751D01*
X183597Y264000D01*
X183696Y263249D01*
X183951Y262633D01*
Y262367D01*
X183696Y261751D01*
X183597Y261000D01*
X183696Y260249D01*
X183986Y259549D01*
X184447Y258947D01*
X185049Y258486D01*
X185749Y258196D01*
X186500Y258097D01*
X187251Y258196D01*
X187951Y258486D01*
X188553Y258947D01*
X189014Y259549D01*
X189304Y260249D01*
X189403Y261000D01*
X189304Y261751D01*
X189049Y262367D01*
Y262444D01*
X215802Y289198D01*
X216556Y289951D01*
X234133D01*
X234749Y289696D01*
X235500Y289597D01*
X236251Y289696D01*
X236951Y289986D01*
X237553Y290447D01*
X238014Y291049D01*
X238304Y291749D01*
X238403Y292500D01*
X238304Y293251D01*
X238014Y293951D01*
X237553Y294553D01*
X236951Y295014D01*
X236251Y295304D01*
X235500Y295403D01*
X234749Y295304D01*
X234133Y295049D01*
X216556D01*
X216549Y295056D01*
Y329500D01*
X216355Y330475D01*
X215802Y331302D01*
X213049Y334056D01*
Y355491D01*
X216009Y358451D01*
X222947D01*
Y356547D01*
X225237D01*
X225535Y355047D01*
X225154Y354889D01*
X224224Y354176D01*
X223511Y353246D01*
X223062Y352162D01*
X223041Y352000D01*
X227400D01*
X231760D01*
X231738Y352162D01*
X231290Y353246D01*
X230576Y354176D01*
X229646Y354889D01*
X229265Y355047D01*
X229563Y356547D01*
X231853D01*
Y365453D01*
D02*
G37*
G36*
X206053D02*
X197147D01*
Y356547D01*
X199437D01*
X199735Y355047D01*
X199354Y354889D01*
X198424Y354176D01*
X197711Y353246D01*
X197262Y352162D01*
X197240Y352000D01*
X201600D01*
X205960D01*
X205938Y352162D01*
X205489Y353246D01*
X204776Y354176D01*
X203846Y354889D01*
X203465Y355047D01*
X203763Y356547D01*
X206053D01*
Y365453D01*
D02*
G37*
G36*
X180253D02*
X171347D01*
Y356547D01*
X173637D01*
X173935Y355047D01*
X173554Y354889D01*
X172624Y354176D01*
X171911Y353246D01*
X171462Y352162D01*
X171440Y352000D01*
X175800D01*
X180159D01*
X180138Y352162D01*
X179690Y353246D01*
X178976Y354176D01*
X178046Y354889D01*
X177665Y355047D01*
X177963Y356547D01*
X180253D01*
Y365453D01*
D02*
G37*
G36*
X283360Y350000D02*
X279000D01*
X274640D01*
X274662Y349838D01*
X275111Y348754D01*
X275824Y347824D01*
X276754Y347111D01*
X277559Y346777D01*
X277688Y346112D01*
Y345888D01*
X277559Y345223D01*
X276754Y344889D01*
X275824Y344176D01*
X275111Y343246D01*
X274662Y342162D01*
X274509Y341000D01*
X274662Y339838D01*
X275111Y338754D01*
X275824Y337824D01*
X276754Y337110D01*
X277559Y336777D01*
X277688Y336112D01*
Y335888D01*
X277559Y335223D01*
X276754Y334890D01*
X275824Y334176D01*
X275111Y333246D01*
X274662Y332162D01*
X274509Y331000D01*
X274662Y329838D01*
X275111Y328754D01*
X275824Y327824D01*
X276754Y327111D01*
X277559Y326777D01*
X277688Y326112D01*
Y325888D01*
X277559Y325223D01*
X276754Y324889D01*
X275824Y324176D01*
X275111Y323246D01*
X274662Y322162D01*
X274509Y321000D01*
X274662Y319838D01*
X275111Y318754D01*
X275824Y317824D01*
X276754Y317110D01*
X277559Y316777D01*
X277688Y316112D01*
Y315888D01*
X277559Y315223D01*
X276754Y314890D01*
X275824Y314176D01*
X275111Y313246D01*
X274662Y312162D01*
X274509Y311000D01*
X274662Y309838D01*
X275111Y308754D01*
X275824Y307824D01*
X276754Y307111D01*
X277838Y306662D01*
X279000Y306509D01*
X280162Y306662D01*
X281246Y307111D01*
X282176Y307824D01*
X282890Y308754D01*
X283338Y309838D01*
X283491Y311000D01*
X283338Y312162D01*
X282890Y313246D01*
X282176Y314176D01*
X281246Y314890D01*
X280441Y315223D01*
X280312Y315888D01*
Y316112D01*
X280441Y316777D01*
X281246Y317110D01*
X282176Y317824D01*
X282890Y318754D01*
X283338Y319838D01*
X283491Y321000D01*
X283338Y322162D01*
X282890Y323246D01*
X282176Y324176D01*
X281246Y324889D01*
X280441Y325223D01*
X280312Y325888D01*
Y326112D01*
X280441Y326777D01*
X281246Y327111D01*
X282176Y327824D01*
X282890Y328754D01*
X283338Y329838D01*
X283491Y331000D01*
X283338Y332162D01*
X282890Y333246D01*
X282176Y334176D01*
X281246Y334890D01*
X280441Y335223D01*
X280312Y335888D01*
Y336112D01*
X280441Y336777D01*
X281246Y337110D01*
X282176Y337824D01*
X282890Y338754D01*
X283338Y339838D01*
X283491Y341000D01*
X283338Y342162D01*
X282890Y343246D01*
X282176Y344176D01*
X281246Y344889D01*
X280441Y345223D01*
X280312Y345888D01*
Y346112D01*
X280441Y346777D01*
X281246Y347111D01*
X282176Y347824D01*
X282890Y348754D01*
X283338Y349838D01*
X283360Y350000D01*
D02*
G37*
G36*
X257559D02*
X253200D01*
X248840D01*
X248862Y349838D01*
X249310Y348754D01*
X250024Y347824D01*
X250954Y347111D01*
X251759Y346777D01*
X251888Y346112D01*
Y345888D01*
X251759Y345223D01*
X250954Y344889D01*
X250024Y344176D01*
X249310Y343246D01*
X248862Y342162D01*
X248709Y341000D01*
X248862Y339838D01*
X249310Y338754D01*
X250024Y337824D01*
X250954Y337110D01*
X251759Y336777D01*
X251888Y336112D01*
Y335888D01*
X251759Y335223D01*
X250954Y334890D01*
X250024Y334176D01*
X249310Y333246D01*
X248862Y332162D01*
X248709Y331000D01*
X248862Y329838D01*
X249310Y328754D01*
X250024Y327824D01*
X250954Y327111D01*
X251759Y326777D01*
X251888Y326112D01*
Y325888D01*
X251759Y325223D01*
X250954Y324889D01*
X250024Y324176D01*
X249310Y323246D01*
X248862Y322162D01*
X248709Y321000D01*
X248862Y319838D01*
X249310Y318754D01*
X250024Y317824D01*
X250954Y317110D01*
X251759Y316777D01*
X251888Y316112D01*
Y315888D01*
X251759Y315223D01*
X250954Y314890D01*
X250024Y314176D01*
X249310Y313246D01*
X248862Y312162D01*
X248709Y311000D01*
X248862Y309838D01*
X249310Y308754D01*
X250024Y307824D01*
X250954Y307111D01*
X252038Y306662D01*
X253200Y306509D01*
X254362Y306662D01*
X255446Y307111D01*
X256376Y307824D01*
X257089Y308754D01*
X257538Y309838D01*
X257691Y311000D01*
X257538Y312162D01*
X257089Y313246D01*
X256376Y314176D01*
X255446Y314890D01*
X254641Y315223D01*
X254512Y315888D01*
Y316112D01*
X254641Y316777D01*
X255446Y317110D01*
X256376Y317824D01*
X257089Y318754D01*
X257538Y319838D01*
X257691Y321000D01*
X257538Y322162D01*
X257089Y323246D01*
X256376Y324176D01*
X255446Y324889D01*
X254641Y325223D01*
X254512Y325888D01*
Y326112D01*
X254641Y326777D01*
X255446Y327111D01*
X256376Y327824D01*
X257089Y328754D01*
X257538Y329838D01*
X257691Y331000D01*
X257538Y332162D01*
X257089Y333246D01*
X256376Y334176D01*
X255446Y334890D01*
X254641Y335223D01*
X254512Y335888D01*
Y336112D01*
X254641Y336777D01*
X255446Y337110D01*
X256376Y337824D01*
X257089Y338754D01*
X257538Y339838D01*
X257691Y341000D01*
X257538Y342162D01*
X257089Y343246D01*
X256376Y344176D01*
X255446Y344889D01*
X254641Y345223D01*
X254512Y345888D01*
Y346112D01*
X254641Y346777D01*
X255446Y347111D01*
X256376Y347824D01*
X257089Y348754D01*
X257538Y349838D01*
X257559Y350000D01*
D02*
G37*
G36*
X231760D02*
X227400D01*
X223041D01*
X223062Y349838D01*
X223511Y348754D01*
X224224Y347824D01*
X225154Y347111D01*
X225959Y346777D01*
X226088Y346112D01*
Y345888D01*
X225959Y345223D01*
X225154Y344889D01*
X224224Y344176D01*
X223511Y343246D01*
X223062Y342162D01*
X222909Y341000D01*
X223062Y339838D01*
X223511Y338754D01*
X224224Y337824D01*
X225154Y337110D01*
X225959Y336777D01*
X226088Y336112D01*
Y335888D01*
X225959Y335223D01*
X225154Y334890D01*
X224224Y334176D01*
X223511Y333246D01*
X223062Y332162D01*
X222909Y331000D01*
X223062Y329838D01*
X223511Y328754D01*
X224224Y327824D01*
X225154Y327111D01*
X225959Y326777D01*
X226088Y326112D01*
Y325888D01*
X225959Y325223D01*
X225154Y324889D01*
X224224Y324176D01*
X223511Y323246D01*
X223062Y322162D01*
X222909Y321000D01*
X223062Y319838D01*
X223511Y318754D01*
X224224Y317824D01*
X225154Y317110D01*
X225959Y316777D01*
X226088Y316112D01*
Y315888D01*
X225959Y315223D01*
X225154Y314890D01*
X224224Y314176D01*
X223511Y313246D01*
X223062Y312162D01*
X222909Y311000D01*
X223062Y309838D01*
X223511Y308754D01*
X224224Y307824D01*
X225154Y307111D01*
X226238Y306662D01*
X227400Y306509D01*
X228562Y306662D01*
X229646Y307111D01*
X230576Y307824D01*
X231290Y308754D01*
X231738Y309838D01*
X231891Y311000D01*
X231738Y312162D01*
X231290Y313246D01*
X230576Y314176D01*
X229646Y314890D01*
X228841Y315223D01*
X228712Y315888D01*
Y316112D01*
X228841Y316777D01*
X229646Y317110D01*
X230576Y317824D01*
X231290Y318754D01*
X231738Y319838D01*
X231891Y321000D01*
X231738Y322162D01*
X231290Y323246D01*
X230576Y324176D01*
X229646Y324889D01*
X228841Y325223D01*
X228712Y325888D01*
Y326112D01*
X228841Y326777D01*
X229646Y327111D01*
X230576Y327824D01*
X231290Y328754D01*
X231738Y329838D01*
X231891Y331000D01*
X231738Y332162D01*
X231290Y333246D01*
X230576Y334176D01*
X229646Y334890D01*
X228841Y335223D01*
X228712Y335888D01*
Y336112D01*
X228841Y336777D01*
X229646Y337110D01*
X230576Y337824D01*
X231290Y338754D01*
X231738Y339838D01*
X231891Y341000D01*
X231738Y342162D01*
X231290Y343246D01*
X230576Y344176D01*
X229646Y344889D01*
X228841Y345223D01*
X228712Y345888D01*
Y346112D01*
X228841Y346777D01*
X229646Y347111D01*
X230576Y347824D01*
X231290Y348754D01*
X231738Y349838D01*
X231760Y350000D01*
D02*
G37*
G36*
X205960D02*
X201600D01*
X197240D01*
X197262Y349838D01*
X197711Y348754D01*
X198424Y347824D01*
X199354Y347111D01*
X200159Y346777D01*
X200288Y346112D01*
Y345888D01*
X200159Y345223D01*
X199354Y344889D01*
X198424Y344176D01*
X197711Y343246D01*
X197262Y342162D01*
X197109Y341000D01*
X197262Y339838D01*
X197711Y338754D01*
X198424Y337824D01*
X199354Y337110D01*
X200159Y336777D01*
X200288Y336112D01*
Y335888D01*
X200159Y335223D01*
X199354Y334890D01*
X198424Y334176D01*
X197711Y333246D01*
X197262Y332162D01*
X197109Y331000D01*
X197262Y329838D01*
X197711Y328754D01*
X198424Y327824D01*
X199354Y327111D01*
X200159Y326777D01*
X200288Y326112D01*
Y325888D01*
X200159Y325223D01*
X199354Y324889D01*
X198424Y324176D01*
X197711Y323246D01*
X197262Y322162D01*
X197109Y321000D01*
X197262Y319838D01*
X197711Y318754D01*
X198424Y317824D01*
X199354Y317110D01*
X200159Y316777D01*
X200288Y316112D01*
Y315888D01*
X200159Y315223D01*
X199354Y314890D01*
X198424Y314176D01*
X197711Y313246D01*
X197262Y312162D01*
X197109Y311000D01*
X197262Y309838D01*
X197711Y308754D01*
X198424Y307824D01*
X199354Y307111D01*
X200438Y306662D01*
X201600Y306509D01*
X202762Y306662D01*
X203846Y307111D01*
X204776Y307824D01*
X205489Y308754D01*
X205938Y309838D01*
X206091Y311000D01*
X205938Y312162D01*
X205489Y313246D01*
X204776Y314176D01*
X203846Y314890D01*
X203041Y315223D01*
X202912Y315888D01*
Y316112D01*
X203041Y316777D01*
X203846Y317110D01*
X204776Y317824D01*
X205489Y318754D01*
X205938Y319838D01*
X206091Y321000D01*
X205938Y322162D01*
X205489Y323246D01*
X204776Y324176D01*
X203846Y324889D01*
X203041Y325223D01*
X202912Y325888D01*
Y326112D01*
X203041Y326777D01*
X203846Y327111D01*
X204776Y327824D01*
X205489Y328754D01*
X205938Y329838D01*
X206091Y331000D01*
X205938Y332162D01*
X205489Y333246D01*
X204776Y334176D01*
X203846Y334890D01*
X203041Y335223D01*
X202912Y335888D01*
Y336112D01*
X203041Y336777D01*
X203846Y337110D01*
X204776Y337824D01*
X205489Y338754D01*
X205938Y339838D01*
X206091Y341000D01*
X205938Y342162D01*
X205489Y343246D01*
X204776Y344176D01*
X203846Y344889D01*
X203041Y345223D01*
X202912Y345888D01*
Y346112D01*
X203041Y346777D01*
X203846Y347111D01*
X204776Y347824D01*
X205489Y348754D01*
X205938Y349838D01*
X205960Y350000D01*
D02*
G37*
G36*
X180159D02*
X175800D01*
X171440D01*
X171462Y349838D01*
X171911Y348754D01*
X172624Y347824D01*
X173554Y347111D01*
X174359Y346777D01*
X174488Y346112D01*
Y345888D01*
X174359Y345223D01*
X173554Y344889D01*
X172624Y344176D01*
X171911Y343246D01*
X171462Y342162D01*
X171309Y341000D01*
X171462Y339838D01*
X171911Y338754D01*
X172624Y337824D01*
X173554Y337110D01*
X174359Y336777D01*
X174488Y336112D01*
Y335888D01*
X174359Y335223D01*
X173554Y334890D01*
X172624Y334176D01*
X171911Y333246D01*
X171462Y332162D01*
X171309Y331000D01*
X171462Y329838D01*
X171911Y328754D01*
X172624Y327824D01*
X173554Y327111D01*
X174359Y326777D01*
X174488Y326112D01*
Y325888D01*
X174359Y325223D01*
X173554Y324889D01*
X172624Y324176D01*
X171911Y323246D01*
X171462Y322162D01*
X171309Y321000D01*
X171462Y319838D01*
X171911Y318754D01*
X172624Y317824D01*
X173554Y317110D01*
X174359Y316777D01*
X174488Y316112D01*
Y315888D01*
X174359Y315223D01*
X173554Y314890D01*
X172624Y314176D01*
X171911Y313246D01*
X171462Y312162D01*
X171309Y311000D01*
X171462Y309838D01*
X171911Y308754D01*
X172624Y307824D01*
X173554Y307111D01*
X174638Y306662D01*
X175800Y306509D01*
X176962Y306662D01*
X178046Y307111D01*
X178976Y307824D01*
X179690Y308754D01*
X180138Y309838D01*
X180291Y311000D01*
X180138Y312162D01*
X179690Y313246D01*
X178976Y314176D01*
X178046Y314890D01*
X177241Y315223D01*
X177112Y315888D01*
Y316112D01*
X177241Y316777D01*
X178046Y317110D01*
X178976Y317824D01*
X179690Y318754D01*
X180138Y319838D01*
X180291Y321000D01*
X180138Y322162D01*
X179690Y323246D01*
X178976Y324176D01*
X178046Y324889D01*
X177241Y325223D01*
X177112Y325888D01*
Y326112D01*
X177241Y326777D01*
X178046Y327111D01*
X178976Y327824D01*
X179690Y328754D01*
X180138Y329838D01*
X180291Y331000D01*
X180138Y332162D01*
X179690Y333246D01*
X178976Y334176D01*
X178046Y334890D01*
X177241Y335223D01*
X177112Y335888D01*
Y336112D01*
X177241Y336777D01*
X178046Y337110D01*
X178976Y337824D01*
X179690Y338754D01*
X180138Y339838D01*
X180291Y341000D01*
X180138Y342162D01*
X179690Y343246D01*
X178976Y344176D01*
X178046Y344889D01*
X177241Y345223D01*
X177112Y345888D01*
Y346112D01*
X177241Y346777D01*
X178046Y347111D01*
X178976Y347824D01*
X179690Y348754D01*
X180138Y349838D01*
X180159Y350000D01*
D02*
G37*
G36*
X154359D02*
X150000D01*
X145641D01*
X145662Y349838D01*
X146110Y348754D01*
X146824Y347824D01*
X147754Y347111D01*
X148559Y346777D01*
X148688Y346112D01*
Y345888D01*
X148559Y345223D01*
X147754Y344889D01*
X146824Y344176D01*
X146110Y343246D01*
X145662Y342162D01*
X145509Y341000D01*
X145662Y339838D01*
X146110Y338754D01*
X146824Y337824D01*
X147754Y337110D01*
X148559Y336777D01*
X148688Y336112D01*
Y335888D01*
X148559Y335223D01*
X147754Y334890D01*
X146824Y334176D01*
X146110Y333246D01*
X145662Y332162D01*
X145509Y331000D01*
X145662Y329838D01*
X146110Y328754D01*
X146824Y327824D01*
X147754Y327111D01*
X148559Y326777D01*
X148688Y326112D01*
Y325888D01*
X148559Y325223D01*
X147754Y324889D01*
X146824Y324176D01*
X146110Y323246D01*
X145662Y322162D01*
X145509Y321000D01*
X145662Y319838D01*
X146110Y318754D01*
X146824Y317824D01*
X147754Y317110D01*
X148559Y316777D01*
X148688Y316112D01*
Y315888D01*
X148559Y315223D01*
X147754Y314890D01*
X146824Y314176D01*
X146110Y313246D01*
X145662Y312162D01*
X145509Y311000D01*
X145662Y309838D01*
X146110Y308754D01*
X146824Y307824D01*
X147754Y307111D01*
X148838Y306662D01*
X150000Y306509D01*
X151162Y306662D01*
X152246Y307111D01*
X153176Y307824D01*
X153890Y308754D01*
X154338Y309838D01*
X154491Y311000D01*
X154338Y312162D01*
X153890Y313246D01*
X153176Y314176D01*
X152246Y314890D01*
X151441Y315223D01*
X151312Y315888D01*
Y316112D01*
X151441Y316777D01*
X152246Y317110D01*
X153176Y317824D01*
X153890Y318754D01*
X154338Y319838D01*
X155935Y320474D01*
X156451Y320069D01*
Y306367D01*
X156196Y305751D01*
X156097Y305000D01*
X156196Y304249D01*
X156486Y303549D01*
X156947Y302947D01*
X157549Y302486D01*
X158249Y302196D01*
X159000Y302097D01*
X159751Y302196D01*
X160451Y302486D01*
X160951Y302870D01*
X161399Y302788D01*
X162451Y302306D01*
Y301867D01*
X162196Y301251D01*
X162097Y300500D01*
X162196Y299749D01*
X162486Y299049D01*
X162947Y298447D01*
X163549Y297986D01*
X164249Y297696D01*
X165000Y297597D01*
X165751Y297696D01*
X166451Y297986D01*
X167053Y298447D01*
X167514Y299049D01*
X167804Y299749D01*
X167903Y300500D01*
X167804Y301251D01*
X167549Y301867D01*
Y326000D01*
X167355Y326975D01*
X166802Y327802D01*
X154388Y340217D01*
X154491Y341000D01*
X154338Y342162D01*
X153890Y343246D01*
X153176Y344176D01*
X152246Y344889D01*
X151441Y345223D01*
X151312Y345888D01*
Y346112D01*
X151441Y346777D01*
X152246Y347111D01*
X153176Y347824D01*
X153890Y348754D01*
X154338Y349838D01*
X154359Y350000D01*
D02*
G37*
G36*
X191500Y293978D02*
X190749Y293879D01*
X190049Y293589D01*
X189447Y293127D01*
X188986Y292526D01*
X188731Y291911D01*
X185869Y289049D01*
X153657D01*
X153176Y289676D01*
X152246Y290389D01*
X151162Y290838D01*
X150000Y290991D01*
X148838Y290838D01*
X147754Y290389D01*
X146824Y289676D01*
X146110Y288746D01*
X145662Y287662D01*
X145509Y286500D01*
X145662Y285338D01*
X146110Y284254D01*
X146824Y283324D01*
X147754Y282611D01*
X148559Y282277D01*
X148688Y281612D01*
Y281388D01*
X148559Y280723D01*
X147754Y280389D01*
X146824Y279676D01*
X146110Y278746D01*
X145662Y277662D01*
X145641Y277500D01*
X150000D01*
X154359D01*
X154338Y277662D01*
X153890Y278746D01*
X153176Y279676D01*
X152246Y280389D01*
X151441Y280723D01*
X151312Y281388D01*
Y281612D01*
X151441Y282277D01*
X152246Y282611D01*
X153176Y283324D01*
X153657Y283951D01*
X186925D01*
X187901Y284145D01*
X188728Y284698D01*
X192336Y288306D01*
X192951Y288561D01*
X193553Y289022D01*
X194014Y289623D01*
X194304Y290323D01*
X194403Y291075D01*
X194304Y291826D01*
X194014Y292526D01*
X193553Y293127D01*
X192951Y293589D01*
X192251Y293879D01*
X191500Y293978D01*
D02*
G37*
G36*
X274500Y281991D02*
X273338Y281838D01*
X272254Y281389D01*
X271324Y280676D01*
X270610Y279746D01*
X270277Y278941D01*
X269612Y278812D01*
X269388D01*
X268723Y278941D01*
X268390Y279746D01*
X267676Y280676D01*
X266746Y281389D01*
X265662Y281838D01*
X264500Y281991D01*
X263338Y281838D01*
X262254Y281389D01*
X261324Y280676D01*
X260611Y279746D01*
X260277Y278941D01*
X259612Y278812D01*
X259388D01*
X258723Y278941D01*
X258389Y279746D01*
X257676Y280676D01*
X256746Y281389D01*
X255662Y281838D01*
X254500Y281991D01*
X253338Y281838D01*
X252254Y281389D01*
X251324Y280676D01*
X250610Y279746D01*
X250277Y278941D01*
X249612Y278812D01*
X249388D01*
X248723Y278941D01*
X248390Y279746D01*
X247676Y280676D01*
X246746Y281389D01*
X245662Y281838D01*
X244500Y281991D01*
X243338Y281838D01*
X242254Y281389D01*
X241324Y280676D01*
X240611Y279746D01*
X240162Y278662D01*
X240009Y277500D01*
X240162Y276338D01*
X240611Y275254D01*
X241324Y274324D01*
X242254Y273610D01*
X243059Y273277D01*
X243188Y272612D01*
Y272388D01*
X243059Y271723D01*
X242254Y271390D01*
X241324Y270676D01*
X240611Y269746D01*
X240162Y268662D01*
X240009Y267500D01*
X240162Y266338D01*
X240611Y265254D01*
X241324Y264324D01*
X242254Y263611D01*
X243338Y263162D01*
X244500Y263009D01*
X245662Y263162D01*
X246746Y263611D01*
X247676Y264324D01*
X248390Y265254D01*
X248723Y266059D01*
X249388Y266188D01*
X249612D01*
X250277Y266059D01*
X250610Y265254D01*
X251324Y264324D01*
X252254Y263611D01*
X253338Y263162D01*
X254500Y263009D01*
X255662Y263162D01*
X256746Y263611D01*
X257676Y264324D01*
X258389Y265254D01*
X258723Y266059D01*
X259388Y266188D01*
X259612D01*
X260277Y266059D01*
X260611Y265254D01*
X261324Y264324D01*
X262254Y263611D01*
X263338Y263162D01*
X263500Y263141D01*
Y267500D01*
X265500D01*
Y263141D01*
X265662Y263162D01*
X266746Y263611D01*
X267676Y264324D01*
X268390Y265254D01*
X268723Y266059D01*
X269388Y266188D01*
X269612D01*
X270277Y266059D01*
X270610Y265254D01*
X271324Y264324D01*
X272254Y263611D01*
X273338Y263162D01*
X274500Y263009D01*
X275662Y263162D01*
X276746Y263611D01*
X277676Y264324D01*
X278390Y265254D01*
X278723Y266059D01*
X279388Y266188D01*
X279612D01*
X280277Y266059D01*
X280610Y265254D01*
X281324Y264324D01*
X282254Y263611D01*
X283338Y263162D01*
X284500Y263009D01*
X285662Y263162D01*
X286746Y263611D01*
X287676Y264324D01*
X288389Y265254D01*
X288838Y266338D01*
X288991Y267500D01*
X288838Y268662D01*
X288389Y269746D01*
X287676Y270676D01*
X286746Y271390D01*
X286365Y271547D01*
X286663Y273047D01*
X288953D01*
Y281953D01*
X280047D01*
Y279663D01*
X278547Y279365D01*
X278390Y279746D01*
X277676Y280676D01*
X276746Y281389D01*
X275662Y281838D01*
X274500Y281991D01*
D02*
G37*
G36*
X154359Y275500D02*
X150000D01*
X145641D01*
X145662Y275338D01*
X146110Y274254D01*
X146824Y273324D01*
X147754Y272610D01*
X148559Y272277D01*
X148688Y271612D01*
Y271388D01*
X148559Y270723D01*
X147754Y270390D01*
X146824Y269676D01*
X146110Y268746D01*
X145662Y267662D01*
X145509Y266500D01*
X145662Y265338D01*
X146110Y264254D01*
X146824Y263324D01*
X147754Y262611D01*
X148135Y262453D01*
X147837Y260953D01*
X145547D01*
Y252047D01*
X154453D01*
Y260953D01*
X152163D01*
X151865Y262453D01*
X152246Y262611D01*
X153176Y263324D01*
X153890Y264254D01*
X154338Y265338D01*
X154491Y266500D01*
X154338Y267662D01*
X153890Y268746D01*
X153176Y269676D01*
X152246Y270390D01*
X151441Y270723D01*
X151312Y271388D01*
Y271612D01*
X151441Y272277D01*
X152246Y272610D01*
X153176Y273324D01*
X153890Y274254D01*
X154338Y275338D01*
X154359Y275500D01*
D02*
G37*
G36*
X157000Y244696D02*
Y239342D01*
X162354D01*
X162328Y239601D01*
X161961Y240812D01*
X161365Y241927D01*
X160563Y242905D01*
X159585Y243707D01*
X158469Y244304D01*
X157259Y244671D01*
X157000Y244696D01*
D02*
G37*
G36*
X155000D02*
X154741Y244671D01*
X153531Y244304D01*
X152415Y243707D01*
X151437Y242905D01*
X150635Y241927D01*
X150039Y240812D01*
X149672Y239601D01*
X149646Y239342D01*
X155000D01*
Y244696D01*
D02*
G37*
G36*
X162354Y237343D02*
X157000D01*
Y231989D01*
X157259Y232014D01*
X158469Y232381D01*
X159585Y232978D01*
X160563Y233780D01*
X161365Y234758D01*
X161961Y235873D01*
X162328Y237084D01*
X162354Y237343D01*
D02*
G37*
G36*
X155000D02*
X149646D01*
X149672Y237084D01*
X150039Y235873D01*
X150635Y234758D01*
X151437Y233780D01*
X152415Y232978D01*
X153531Y232381D01*
X154741Y232014D01*
X155000Y231989D01*
Y237343D01*
D02*
G37*
G36*
X278500Y244795D02*
X277241Y244671D01*
X276031Y244304D01*
X274915Y243707D01*
X273938Y242905D01*
X273135Y241927D01*
X272539Y240812D01*
X272172Y239601D01*
X272048Y238342D01*
X272172Y237084D01*
X272539Y235873D01*
X273135Y234758D01*
X273938Y233780D01*
X274915Y232978D01*
X276031Y232381D01*
X277241Y232014D01*
X278500Y231890D01*
X279759Y232014D01*
X280969Y232381D01*
X282085Y232978D01*
X283063Y233780D01*
X283865Y234758D01*
X284461Y235873D01*
X284828Y237084D01*
X284952Y238342D01*
X284828Y239601D01*
X284461Y240812D01*
X283865Y241927D01*
X283063Y242905D01*
X282085Y243707D01*
X280969Y244304D01*
X279759Y244671D01*
X278500Y244795D01*
D02*
G37*
G36*
X279500Y225011D02*
Y219657D01*
X284854D01*
X284828Y219916D01*
X284461Y221127D01*
X283865Y222242D01*
X283063Y223220D01*
X282085Y224022D01*
X280969Y224619D01*
X279759Y224986D01*
X279500Y225011D01*
D02*
G37*
G36*
X277500D02*
X277241Y224986D01*
X276031Y224619D01*
X274915Y224022D01*
X273938Y223220D01*
X273135Y222242D01*
X272539Y221127D01*
X272172Y219916D01*
X272146Y219657D01*
X277500D01*
Y225011D01*
D02*
G37*
G36*
X238500Y237403D02*
X237749Y237304D01*
X237049Y237014D01*
X236447Y236553D01*
X235986Y235951D01*
X235696Y235251D01*
X235597Y234500D01*
X235696Y233749D01*
X235969Y233089D01*
X235951Y232997D01*
Y219549D01*
X195660D01*
X195562Y219624D01*
X194862Y219914D01*
X194110Y220013D01*
X193359Y219914D01*
X192744Y219659D01*
X192574D01*
X191959Y219914D01*
X191208Y220013D01*
X190456Y219914D01*
X189756Y219624D01*
X189155Y219163D01*
X188694Y218562D01*
X188404Y217862D01*
X188305Y217110D01*
X188404Y216359D01*
X188694Y215659D01*
X189155Y215058D01*
X189756Y214597D01*
X190456Y214307D01*
X191208Y214208D01*
X191959Y214307D01*
X192574Y214562D01*
X192744D01*
X193359Y214307D01*
X194110Y214208D01*
X194862Y214307D01*
X195211Y214451D01*
X197490D01*
X197789Y212951D01*
X197640Y212890D01*
X196710Y212176D01*
X195996Y211246D01*
X195548Y210162D01*
X195526Y210000D01*
X199886D01*
Y209000D01*
X200886D01*
Y204641D01*
X201048Y204662D01*
X202131Y205111D01*
X203062Y205824D01*
X203775Y206754D01*
X204108Y207559D01*
X204774Y207688D01*
X204998D01*
X205663Y207559D01*
X205996Y206754D01*
X206710Y205824D01*
X207640Y205111D01*
X208723Y204662D01*
X209886Y204509D01*
X211048Y204662D01*
X212131Y205111D01*
X213061Y205824D01*
X213775Y206754D01*
X213933Y207135D01*
X215433Y206837D01*
Y204547D01*
X224339D01*
Y212951D01*
X224339Y213453D01*
X225425Y214451D01*
X229605D01*
X229903Y212951D01*
X229754Y212890D01*
X228824Y212176D01*
X228111Y211246D01*
X227662Y210162D01*
X227641Y210000D01*
X232000D01*
Y209000D01*
X233000D01*
Y204641D01*
X233162Y204662D01*
X234246Y205111D01*
X235176Y205824D01*
X235890Y206754D01*
X236223Y207559D01*
X236888Y207688D01*
X237112D01*
X237777Y207559D01*
X238110Y206754D01*
X238824Y205824D01*
X239754Y205111D01*
X240838Y204662D01*
X242000Y204509D01*
X243162Y204662D01*
X244246Y205111D01*
X245176Y205824D01*
X245889Y206754D01*
X246047Y207135D01*
X247547Y206837D01*
Y204547D01*
X256453D01*
Y213453D01*
X247547D01*
Y211163D01*
X246047Y210865D01*
X245889Y211246D01*
X245176Y212176D01*
X244246Y212890D01*
X243431Y213227D01*
X243198Y213769D01*
X243166Y213928D01*
X243171Y214850D01*
X243442Y215058D01*
X243903Y215659D01*
X244193Y216359D01*
X244292Y217110D01*
X244193Y217862D01*
X243903Y218562D01*
X243442Y219163D01*
X242841Y219624D01*
X242141Y219914D01*
X241390Y220013D01*
X241049Y220312D01*
Y231942D01*
X241054Y231946D01*
X241606Y232773D01*
X241800Y233749D01*
X241606Y234724D01*
X241316Y235158D01*
X241304Y235251D01*
X241014Y235951D01*
X240553Y236553D01*
X239951Y237014D01*
X239251Y237304D01*
X238500Y237403D01*
D02*
G37*
G36*
X284854Y217657D02*
X279500D01*
Y212304D01*
X279759Y212329D01*
X280969Y212696D01*
X282085Y213293D01*
X283063Y214095D01*
X283865Y215073D01*
X284461Y216188D01*
X284828Y217399D01*
X284854Y217657D01*
D02*
G37*
G36*
X277500D02*
X272146D01*
X272172Y217399D01*
X272539Y216188D01*
X273135Y215073D01*
X273938Y214095D01*
X274915Y213293D01*
X276031Y212696D01*
X277241Y212329D01*
X277500Y212304D01*
Y217657D01*
D02*
G37*
G36*
X156000Y225110D02*
X154741Y224986D01*
X153531Y224619D01*
X152415Y224022D01*
X151437Y223220D01*
X150635Y222242D01*
X150039Y221127D01*
X149672Y219916D01*
X149548Y218657D01*
X149672Y217399D01*
X150039Y216188D01*
X150635Y215073D01*
X151437Y214095D01*
X152415Y213293D01*
X153531Y212696D01*
X154741Y212329D01*
X156000Y212205D01*
X157259Y212329D01*
X158469Y212696D01*
X159585Y213293D01*
X160563Y214095D01*
X161365Y215073D01*
X161961Y216188D01*
X162328Y217399D01*
X162452Y218657D01*
X162328Y219916D01*
X161961Y221127D01*
X161365Y222242D01*
X160563Y223220D01*
X159585Y224022D01*
X158469Y224619D01*
X157259Y224986D01*
X156000Y225110D01*
D02*
G37*
G36*
X198886Y208000D02*
X195526D01*
X195548Y207838D01*
X195996Y206754D01*
X196710Y205824D01*
X197640Y205111D01*
X198723Y204662D01*
X198886Y204641D01*
Y208000D01*
D02*
G37*
G36*
X231000D02*
X227641D01*
X227662Y207838D01*
X228111Y206754D01*
X228824Y205824D01*
X229754Y205111D01*
X230838Y204662D01*
X231000Y204641D01*
Y208000D01*
D02*
G37*
%LPD*%
D10*
X186500Y263500D02*
X214000Y291000D01*
X186500Y261000D02*
Y263500D01*
X214000Y294000D02*
Y329500D01*
Y292500D02*
Y294000D01*
X215500Y292500D01*
X214000Y294000D02*
Y294500D01*
Y291000D02*
X214750Y291750D01*
X214000Y291000D02*
Y292500D01*
X214750Y291750D02*
X215500Y292500D01*
X214000D02*
X214750Y291750D01*
X210500Y333000D02*
X214000Y329500D01*
X210500Y333000D02*
Y356547D01*
X214953Y361000D01*
X227400D01*
X238500Y217000D02*
X241279D01*
X241390Y217110D01*
X238500Y217000D02*
Y232997D01*
X239251Y233749D01*
X194221Y217000D02*
X238500D01*
X194110Y217110D02*
X194221Y217000D01*
X238500Y234500D02*
X239251Y233749D01*
X191208Y217110D02*
X194110D01*
X215500Y292500D02*
X235500D01*
X186500Y263500D02*
Y264000D01*
X150000Y341000D02*
X165000Y326000D01*
Y300500D02*
Y326000D01*
X150000Y331000D02*
X159000Y322000D01*
Y305000D02*
Y322000D01*
X186925Y286500D02*
X191500Y291075D01*
X150000Y286500D02*
X186925D01*
D47*
X219886Y209000D02*
D03*
X252000D02*
D03*
X284500Y277500D02*
D03*
D48*
X209886Y209000D02*
D03*
X199886D02*
D03*
X175800Y351000D02*
D03*
Y341000D02*
D03*
Y331000D02*
D03*
Y321000D02*
D03*
Y311000D02*
D03*
X150000Y351000D02*
D03*
Y341000D02*
D03*
Y331000D02*
D03*
Y321000D02*
D03*
Y311000D02*
D03*
Y266500D02*
D03*
Y276500D02*
D03*
Y286500D02*
D03*
X227400Y351000D02*
D03*
Y341000D02*
D03*
Y331000D02*
D03*
Y321000D02*
D03*
Y311000D02*
D03*
X201600Y351000D02*
D03*
Y341000D02*
D03*
Y331000D02*
D03*
Y321000D02*
D03*
Y311000D02*
D03*
X242000Y209000D02*
D03*
X232000D02*
D03*
X254500Y267500D02*
D03*
Y277500D02*
D03*
X264500Y267500D02*
D03*
Y277500D02*
D03*
X274500Y267500D02*
D03*
Y277500D02*
D03*
X284500Y267500D02*
D03*
X244500D02*
D03*
Y277500D02*
D03*
X279000Y351000D02*
D03*
Y341000D02*
D03*
Y331000D02*
D03*
Y321000D02*
D03*
Y311000D02*
D03*
X253200Y351000D02*
D03*
Y341000D02*
D03*
Y331000D02*
D03*
Y321000D02*
D03*
Y311000D02*
D03*
D49*
X175800Y361000D02*
D03*
X150000D02*
D03*
Y256500D02*
D03*
X227400Y361000D02*
D03*
X201600D02*
D03*
X279000D02*
D03*
X253200D02*
D03*
D50*
X278500Y238342D02*
D03*
Y218657D02*
D03*
X156000D02*
D03*
Y238342D02*
D03*
D51*
X186500Y261000D02*
D03*
X290000Y360000D02*
D03*
X295000Y350000D02*
D03*
X290000Y340000D02*
D03*
X295000Y330000D02*
D03*
Y310000D02*
D03*
Y290000D02*
D03*
Y270000D02*
D03*
X290000Y260000D02*
D03*
X295000Y210000D02*
D03*
X290000Y200000D02*
D03*
X285000Y350000D02*
D03*
X280000Y200000D02*
D03*
X270000Y260000D02*
D03*
X275000Y250000D02*
D03*
Y210000D02*
D03*
X260000Y260000D02*
D03*
X265000Y250000D02*
D03*
Y210000D02*
D03*
X250000Y260000D02*
D03*
X255000Y250000D02*
D03*
X250000Y240000D02*
D03*
X245000Y250000D02*
D03*
X240000Y200000D02*
D03*
X235000Y350000D02*
D03*
X230000Y200000D02*
D03*
X220000D02*
D03*
X210000Y320000D02*
D03*
Y200000D02*
D03*
X200000D02*
D03*
X190000D02*
D03*
X180000Y260000D02*
D03*
X185000Y210000D02*
D03*
X180000Y200000D02*
D03*
X175000Y270000D02*
D03*
X170000Y260000D02*
D03*
Y240000D02*
D03*
X175000Y230000D02*
D03*
Y210000D02*
D03*
X170000Y200000D02*
D03*
X165000Y250000D02*
D03*
Y230000D02*
D03*
Y210000D02*
D03*
X160000Y200000D02*
D03*
X150000Y300000D02*
D03*
X155000Y250000D02*
D03*
X150000Y200000D02*
D03*
X140000Y360000D02*
D03*
Y340000D02*
D03*
Y320000D02*
D03*
Y300000D02*
D03*
X145000Y290000D02*
D03*
X140000Y280000D02*
D03*
X145000Y270000D02*
D03*
X140000Y260000D02*
D03*
X145000Y250000D02*
D03*
X140000Y240000D02*
D03*
X145000Y230000D02*
D03*
X140000Y220000D02*
D03*
X145000Y210000D02*
D03*
X140000Y200000D02*
D03*
X238500Y217000D02*
D03*
X206451Y226500D02*
D03*
Y231500D02*
D03*
Y236500D02*
D03*
X238000Y260000D02*
D03*
X231425Y272000D02*
D03*
Y282000D02*
D03*
X261500Y207500D02*
D03*
X271324Y230500D02*
D03*
X262500D02*
D03*
Y220500D02*
D03*
X259579Y264209D02*
D03*
X249612Y263862D02*
D03*
X237777Y245500D02*
D03*
X250000Y230500D02*
D03*
X231425Y227000D02*
D03*
X219854Y228000D02*
D03*
X222000Y236633D02*
D03*
X214500Y234000D02*
D03*
X226500Y221000D02*
D03*
X204209Y221673D02*
D03*
X188146Y226624D02*
D03*
X183474Y231500D02*
D03*
X180791Y239000D02*
D03*
Y253000D02*
D03*
X175800Y243500D02*
D03*
Y248500D02*
D03*
X222351Y253500D02*
D03*
X204108Y249100D02*
D03*
Y241068D02*
D03*
X198886Y246000D02*
D03*
X195146D02*
D03*
X191959D02*
D03*
X195876Y266514D02*
D03*
X191500Y261500D02*
D03*
X195876Y262925D02*
D03*
X192500Y305000D02*
D03*
X201435Y300000D02*
D03*
X192744Y298000D02*
D03*
X196163Y287000D02*
D03*
X271000Y351000D02*
D03*
X266000D02*
D03*
X245500D02*
D03*
X240500D02*
D03*
X219500D02*
D03*
X214500D02*
D03*
X193500D02*
D03*
X188661D02*
D03*
X184000D02*
D03*
X168000Y351500D02*
D03*
X163000D02*
D03*
X158000D02*
D03*
X241390Y217110D02*
D03*
X191208D02*
D03*
X235500Y292500D02*
D03*
X191500Y291075D02*
D03*
X186500Y264000D02*
D03*
X238500Y234500D02*
D03*
X194110Y217110D02*
D03*
X165000Y300500D02*
D03*
X159000Y305000D02*
D03*
M02*
