M48
;Layer_Color=9474304
;FILE_FORMAT=2:5
INCH,TZ
;TYPE=PLATED
T1F00S00C0.01181
T2F00S00C0.03543
T3F00S00C0.05118
%
T01
X160000Y200000
X170000
X180000
X190000
X200000
X210000
X220000
X230000
X240000
X238500Y217000
X241390Y217110
X226500Y221000
X231425Y227000
X219854Y228000
X222000Y236633
X214500Y234000
X206451Y231500
Y226500
X204209Y221673
X194110Y217110
X191208
X188146Y226624
X183474Y231500
X175000Y230000
X165000
X170000Y240000
X175800Y243500
Y248500
X180791Y253000
X180000Y260000
X186500Y261000
Y264000
X191500Y261500
X195876Y262925
Y266514
X196163Y287000
X191500Y291075
X192744Y298000
X192500Y305000
X201435Y300000
X165000Y300500
X159000Y305000
X175000Y270000
X170000Y260000
X165000Y250000
X180791Y239000
X191959Y246000
X195146
X198886
X204108Y249100
Y241068
X206451Y236500
X222351Y253500
X238000Y260000
X250000
X249612Y263862
X259579Y264209
X260000Y260000
X270000
X275000Y250000
X265000
X255000
X245000
X237777Y245500
X238500Y234500
X250000Y230500
Y240000
X262500Y230500
X271324
X262500Y220500
X265000Y210000
X261500Y207500
X275000Y210000
X280000Y200000
X290000
X295000Y210000
X290000Y260000
X295000Y270000
Y290000
Y310000
X235500Y292500
X231425Y282000
Y272000
X185000Y210000
X175000
X165000
X145000
X150000Y200000
X140000
Y220000
X145000Y230000
X140000Y240000
X145000Y250000
X155000
X140000Y260000
X145000Y270000
X140000Y280000
X145000Y290000
X150000Y300000
X140000
Y320000
Y340000
Y360000
X158000Y351500
X163000
X168000
X184000Y351000
X188661
X193500
X214500
X219500
X235000Y350000
X240500Y351000
X245500
X266000
X271000
X285000Y350000
X295000
X290000Y360000
Y340000
X295000Y330000
X210000Y320000
T02
X199886Y209000
X209886
X219886
X232000
X242000
X252000
X254500Y267500
Y277500
X264500
Y267500
X274500
Y277500
X284500
Y267500
X244500
Y277500
X253200Y311000
X227400
X201600
X175800
X279000
X150000
Y286500
Y276500
Y266500
Y256500
Y321000
Y331000
Y341000
Y351000
Y361000
X175800
Y351000
Y341000
Y331000
Y321000
X201600
Y331000
Y341000
Y351000
Y361000
X227400
Y351000
Y341000
Y331000
Y321000
X253200
Y331000
Y341000
Y351000
Y361000
X279000
Y351000
Y341000
Y331000
Y321000
T03
X278500Y218657
Y238342
X156000
Y218657
M30
